LisuNew-BoldItalic.ufo
<glyph name="exclam" format="2">
  <advance width="707"/>
  <unicode hex="0021"/>
  <outline>
    <contour>
      <point x="709" y="1145" type="qcurve"/>
      <point x="709" y="1124"/>
      <point x="379" y="461"/>
      <point x="354" y="436" type="qcurve"/>
      <point x="340" y="420"/>
      <point x="258" y="418" type="qcurve"/>
      <point x="203" y="418"/>
      <point x="150" y="418" type="qcurve"/>
      <point x="152" y="420" type="line"/>
      <point x="150" y="442"/>
      <point x="156" y="469" type="qcurve"/>
      <point x="205" y="668"/>
      <point x="307" y="1061" type="qcurve"/>
      <point x="315" y="1096"/>
      <point x="328" y="1143" type="qcurve"/>
      <point x="336" y="1155"/>
      <point x="434" y="1155" type="qcurve"/>
      <point x="686" y="1155" type="line"/>
      <point x="709" y="1157"/>
    </contour>
    <contour>
      <point x="319" y="141" type="qcurve"/>
      <point x="319" y="72"/>
      <point x="219" y="-20"/>
      <point x="150" y="-20" type="qcurve"/>
      <point x="35" y="-20"/>
      <point x="35" y="84" type="qcurve"/>
      <point x="35" y="150"/>
      <point x="141" y="238"/>
      <point x="205" y="238" type="qcurve"/>
      <point x="252" y="238"/>
      <point x="319" y="186"/>
    </contour>
  </outline>
</glyph>
<glyph name="quotedbl" format="2">
  <advance width="842"/>
  <unicode hex="0022"/>
  <outline>
    <contour>
      <point x="967" y="1124" type="qcurve"/>
      <point x="967" y="1106"/>
      <point x="690" y="717"/>
      <point x="662" y="692" type="qcurve"/>
      <point x="643" y="678"/>
      <point x="610" y="678" type="qcurve"/>
      <point x="584" y="678"/>
      <point x="578" y="692" type="qcurve"/>
      <point x="573" y="698"/>
      <point x="573" y="731" type="qcurve"/>
      <point x="573" y="788"/>
      <point x="608" y="883" type="qcurve"/>
      <point x="639" y="956"/>
      <point x="668" y="1030" type="qcurve"/>
      <point x="692" y="1092"/>
      <point x="754" y="1143"/>
      <point x="815" y="1145" type="qcurve"/>
      <point x="897" y="1145" type="line"/>
      <point x="967" y="1147"/>
    </contour>
    <contour>
      <point x="514" y="1124" type="qcurve"/>
      <point x="514" y="1106"/>
      <point x="240" y="717"/>
      <point x="209" y="692" type="qcurve"/>
      <point x="193" y="678"/>
      <point x="158" y="678" type="qcurve"/>
      <point x="131" y="678"/>
      <point x="125" y="692" type="qcurve"/>
      <point x="121" y="698"/>
      <point x="121" y="731" type="qcurve"/>
      <point x="121" y="788"/>
      <point x="156" y="883" type="qcurve"/>
      <point x="186" y="956"/>
      <point x="215" y="1030" type="qcurve"/>
      <point x="240" y="1092"/>
      <point x="301" y="1143"/>
      <point x="362" y="1145" type="qcurve"/>
      <point x="444" y="1145" type="line"/>
      <point x="514" y="1147"/>
    </contour>
  </outline>
</glyph>
<glyph name="numbersign" format="2">
  <advance width="1180"/>
  <unicode hex="0023"/>
  <outline>
    <contour>
      <point x="1067" y="795" type="line"/>
      <point x="1053" y="743" type="line"/>
      <point x="809" y="743" type="line"/>
      <point x="711" y="389" type="line"/>
      <point x="956" y="389" type="line"/>
      <point x="942" y="338" type="line"/>
      <point x="698" y="338" type="line"/>
      <point x="604" y="0" type="line"/>
      <point x="541" y="0" type="line"/>
      <point x="635" y="338" type="line"/>
      <point x="358" y="338" type="line"/>
      <point x="266" y="0" type="line"/>
      <point x="203" y="0" type="line"/>
      <point x="295" y="338" type="line"/>
      <point x="49" y="338" type="line"/>
      <point x="63" y="389" type="line"/>
      <point x="309" y="389" type="line"/>
      <point x="406" y="743" type="line"/>
      <point x="160" y="743" type="line"/>
      <point x="172" y="795" type="line"/>
      <point x="420" y="795" type="line"/>
      <point x="510" y="1133" type="line"/>
      <point x="575" y="1133" type="line"/>
      <point x="483" y="795" type="line"/>
      <point x="758" y="795" type="line"/>
      <point x="848" y="1133" type="line"/>
      <point x="913" y="1133" type="line"/>
      <point x="821" y="795" type="line"/>
    </contour>
    <contour>
      <point x="745" y="743" type="line"/>
      <point x="469" y="743" type="line"/>
      <point x="373" y="389" type="line"/>
      <point x="645" y="389" type="line"/>
    </contour>
  </outline>
</glyph>
<glyph name="quotesingle" format="2">
  <advance width="389"/>
  <unicode hex="0027"/>
  <outline>
    <contour>
      <point x="514" y="1124" type="qcurve"/>
      <point x="514" y="1106"/>
      <point x="238" y="717"/>
      <point x="209" y="692" type="qcurve"/>
      <point x="190" y="678"/>
      <point x="158" y="678" type="qcurve"/>
      <point x="131" y="678"/>
      <point x="125" y="692" type="qcurve"/>
      <point x="121" y="698"/>
      <point x="121" y="731" type="qcurve"/>
      <point x="121" y="788"/>
      <point x="156" y="883" type="qcurve"/>
      <point x="186" y="956"/>
      <point x="215" y="1030" type="qcurve"/>
      <point x="240" y="1092"/>
      <point x="301" y="1143"/>
      <point x="362" y="1145" type="qcurve"/>
      <point x="444" y="1145" type="line"/>
      <point x="514" y="1147"/>
    </contour>
  </outline>
</glyph>
<glyph name="parenleft" format="2">
  <advance width="1044"/>
  <unicode hex="0028"/>
  <outline>
    <contour>
      <point x="1223" y="1255" type="qcurve"/>
      <point x="1223" y="1198"/>
      <point x="1149" y="1171" type="qcurve"/>
      <point x="1108" y="1161"/>
      <point x="1028" y="1137" type="qcurve"/>
      <point x="854" y="1079"/>
      <point x="725" y="809" type="qcurve"/>
      <point x="612" y="571"/>
      <point x="612" y="362" type="qcurve"/>
      <point x="612" y="33"/>
      <point x="813" y="-186" type="qcurve"/>
      <point x="784" y="-223"/>
      <point x="688" y="-223" type="qcurve"/>
      <point x="668" y="-223"/>
      <point x="639" y="-207" type="qcurve"/>
      <point x="537" y="-150"/>
      <point x="483" y="45" type="qcurve"/>
      <point x="442" y="193"/>
      <point x="442" y="354" type="qcurve"/>
      <point x="442" y="623"/>
      <point x="516" y="807" type="qcurve"/>
      <point x="600" y="1022"/>
      <point x="797" y="1163" type="qcurve"/>
      <point x="973" y="1290"/>
      <point x="1171" y="1290" type="qcurve"/>
      <point x="1223" y="1290"/>
    </contour>
  </outline>
</glyph>
<glyph name="parenright" format="2">
  <advance width="993"/>
  <unicode hex="0029"/>
  <outline>
    <contour>
      <point x="686" y="797" type="qcurve"/>
      <point x="686" y="580"/>
      <point x="618" y="389" type="qcurve"/>
      <point x="545" y="178"/>
      <point x="401" y="41" type="qcurve"/>
      <point x="168" y="-182"/>
      <point x="-43" y="-182" type="qcurve"/>
      <point x="-98" y="-182"/>
      <point x="-98" y="-147" type="qcurve"/>
      <point x="-98" y="-90"/>
      <point x="-23" y="-53" type="qcurve"/>
      <point x="20" y="-39"/>
      <point x="104" y="-8" type="qcurve"/>
      <point x="131" y="2"/>
      <point x="233" y="96" type="qcurve"/>
      <point x="373" y="223"/>
      <point x="444" y="418" type="qcurve"/>
      <point x="512" y="596"/>
      <point x="512" y="799" type="qcurve"/>
      <point x="512" y="1102"/>
      <point x="326" y="1278" type="qcurve"/>
      <point x="317" y="1286"/>
      <point x="313" y="1294" type="qcurve"/>
      <point x="313" y="1331"/>
      <point x="414" y="1331" type="qcurve"/>
      <point x="438" y="1331" type="line"/>
      <point x="555" y="1331"/>
      <point x="629" y="1114" type="qcurve"/>
      <point x="686" y="946"/>
    </contour>
  </outline>
</glyph>
<glyph name="plus" format="2">
  <advance width="1360"/>
  <unicode hex="002B"/>
  <outline>
    <contour>
      <point x="1223" y="463" type="qcurve"/>
      <point x="1223" y="383"/>
      <point x="1112" y="383" type="qcurve"/>
      <point x="745" y="383" type="line"/>
      <point x="745" y="88" type="line"/>
      <point x="745" y="0"/>
      <point x="643" y="0" type="qcurve"/>
      <point x="541" y="0"/>
      <point x="541" y="88" type="qcurve"/>
      <point x="541" y="383" type="line"/>
      <point x="174" y="383" type="line"/>
      <point x="63" y="383"/>
      <point x="63" y="463" type="qcurve"/>
      <point x="63" y="545"/>
      <point x="174" y="545" type="qcurve"/>
      <point x="541" y="545" type="line"/>
      <point x="541" y="838" type="line"/>
      <point x="541" y="928"/>
      <point x="643" y="928" type="qcurve"/>
      <point x="745" y="928"/>
      <point x="745" y="838" type="qcurve"/>
      <point x="745" y="545" type="line"/>
      <point x="1112" y="545" type="line"/>
      <point x="1223" y="545"/>
    </contour>
  </outline>
</glyph>
<glyph name="hyphen" format="2">
  <advance width="922"/>
  <unicode hex="002D"/>
  <outline>
    <contour>
      <point x="793" y="571" type="line"/>
      <point x="748" y="391" type="line"/>
      <point x="137" y="391" type="line"/>
      <point x="182" y="571" type="line"/>
    </contour>
  </outline>
</glyph>
<glyph name="one" format="2">
  <advance width="807"/>
  <unicode hex="0031"/>
  <outline>
    <contour>
      <point x="754" y="1094" type="qcurve"/>
      <point x="754" y="1042"/>
      <point x="606" y="645" type="qcurve"/>
      <point x="512" y="395"/>
      <point x="420" y="147" type="qcurve"/>
      <point x="410" y="111"/>
      <point x="381" y="43" type="qcurve"/>
      <point x="360" y="4"/>
      <point x="328" y="-2" type="qcurve"/>
      <point x="322" y="-2"/>
      <point x="252" y="-2" type="qcurve"/>
      <point x="76" y="-2"/>
      <point x="76" y="43" type="qcurve"/>
      <point x="76" y="78"/>
      <point x="193" y="403" type="qcurve"/>
      <point x="264" y="600"/>
      <point x="336" y="797" type="qcurve"/>
      <point x="174" y="829"/>
      <point x="174" y="854" type="qcurve"/>
      <point x="174" y="862"/>
      <point x="469" y="1133" type="qcurve"/>
      <point x="485" y="1149"/>
      <point x="510" y="1149" type="qcurve"/>
      <point x="754" y="1149"/>
    </contour>
  </outline>
</glyph>
<glyph name="three" format="2">
  <advance width="1126"/>
  <unicode hex="0033"/>
  <outline>
    <contour>
      <point x="1055" y="909" type="qcurve"/>
      <point x="1055" y="707"/>
      <point x="686" y="604" type="qcurve"/>
      <point x="944" y="512"/>
      <point x="944" y="350" type="qcurve"/>
      <point x="944" y="227"/>
      <point x="741" y="25"/>
      <point x="618" y="4" type="qcurve"/>
      <point x="530" y="-12"/>
      <point x="453" y="-12" type="qcurve"/>
      <point x="160" y="-12"/>
      <point x="86" y="125" type="qcurve"/>
      <point x="43" y="205"/>
      <point x="43" y="238" type="qcurve"/>
      <point x="43" y="315"/>
      <point x="84" y="375"/>
      <point x="160" y="375" type="qcurve"/>
      <point x="174" y="375"/>
      <point x="264" y="360"/>
      <point x="279" y="348"/>
      <point x="279" y="309" type="qcurve"/>
      <point x="279" y="248"/>
      <point x="360" y="176"/>
      <point x="424" y="176" type="qcurve"/>
      <point x="516" y="176"/>
      <point x="645" y="289"/>
      <point x="645" y="379" type="qcurve"/>
      <point x="645" y="451"/>
      <point x="573" y="487" type="qcurve"/>
      <point x="508" y="512"/>
      <point x="444" y="535" type="qcurve"/>
      <point x="438" y="537"/>
      <point x="438" y="541" type="qcurve"/>
      <point x="438" y="555"/>
      <point x="461" y="616" type="qcurve"/>
      <point x="494" y="700"/>
      <point x="528" y="721"/>
      <point x="627" y="721" type="qcurve"/>
      <point x="756" y="795"/>
      <point x="756" y="870" type="qcurve"/>
      <point x="756" y="915"/>
      <point x="678" y="975"/>
      <point x="633" y="975" type="qcurve"/>
      <point x="557" y="975"/>
      <point x="440" y="879"/>
      <point x="328" y="879" type="qcurve"/>
      <point x="215" y="879"/>
      <point x="215" y="909" type="qcurve"/>
      <point x="215" y="967"/>
      <point x="338" y="1053" type="qcurve"/>
      <point x="453" y="1130"/>
      <point x="520" y="1139" type="qcurve"/>
      <point x="627" y="1151"/>
      <point x="696" y="1151" type="qcurve"/>
      <point x="733" y="1151"/>
      <point x="811" y="1143" type="qcurve"/>
      <point x="903" y="1133"/>
      <point x="975" y="1069" type="qcurve"/>
      <point x="1055" y="999"/>
    </contour>
  </outline>
</glyph>
<glyph name="four" format="2">
  <advance width="1210"/>
  <unicode hex="0034"/>
  <outline>
    <contour>
      <point x="1094" y="844" type="qcurve"/>
      <point x="1094" y="805"/>
      <point x="1042" y="676" type="qcurve"/>
      <point x="1008" y="588"/>
      <point x="973" y="502" type="qcurve"/>
      <point x="1081" y="479"/>
      <point x="1081" y="463" type="qcurve"/>
      <point x="1081" y="438"/>
      <point x="1014" y="285"/>
      <point x="997" y="276" type="qcurve"/>
      <point x="991" y="272"/>
      <point x="881" y="266" type="qcurve"/>
      <point x="866" y="217"/>
      <point x="834" y="123" type="qcurve"/>
      <point x="815" y="78"/>
      <point x="780" y="-10" type="qcurve"/>
      <point x="768" y="-14"/>
      <point x="688" y="-14" type="qcurve"/>
      <point x="520" y="-14"/>
      <point x="520" y="18" type="qcurve"/>
      <point x="520" y="63"/>
      <point x="547" y="150" type="qcurve"/>
      <point x="569" y="215"/>
      <point x="592" y="281" type="qcurve"/>
      <point x="416" y="279"/>
      <point x="170" y="293" type="qcurve"/>
      <point x="125" y="303"/>
      <point x="82" y="356" type="qcurve"/>
      <point x="6" y="449"/>
      <point x="6" y="487" type="qcurve"/>
      <point x="6" y="508"/>
      <point x="29" y="532" type="qcurve"/>
      <point x="80" y="586"/>
      <point x="182" y="694" type="qcurve"/>
      <point x="274" y="799"/>
      <point x="367" y="903" type="qcurve"/>
      <point x="479" y="1028"/>
      <point x="563" y="1104" type="qcurve"/>
      <point x="610" y="1147"/>
      <point x="645" y="1147" type="qcurve"/>
      <point x="692" y="1147"/>
      <point x="774" y="1128" type="qcurve"/>
      <point x="874" y="1106"/>
      <point x="874" y="1081" type="qcurve"/>
      <point x="874" y="1073"/>
      <point x="743" y="907" type="qcurve"/>
      <point x="848" y="911"/>
      <point x="897" y="911" type="qcurve"/>
      <point x="1094" y="911"/>
    </contour>
    <contour>
      <point x="887" y="1049" type="qcurve"/>
      <point x="770" y="928"/>
      <point x="530" y="690" type="qcurve"/>
      <point x="500" y="659"/>
      <point x="311" y="494" type="qcurve"/>
      <point x="551" y="494"/>
      <point x="655" y="481" type="qcurve"/>
      <point x="698" y="575"/>
    </contour>
  </outline>
</glyph>
<glyph name="nine" format="2">
  <advance width="1118"/>
  <unicode hex="0039"/>
  <outline>
    <contour>
      <point x="1047" y="811" type="qcurve"/>
      <point x="1047" y="592"/>
      <point x="864" y="356" type="qcurve"/>
      <point x="805" y="281"/>
      <point x="676" y="158" type="qcurve"/>
      <point x="528" y="14"/>
      <point x="471" y="-4" type="qcurve"/>
      <point x="438" y="-14"/>
      <point x="387" y="-14" type="qcurve"/>
      <point x="358" y="-14"/>
      <point x="264" y="8" type="qcurve"/>
      <point x="160" y="35"/>
      <point x="160" y="49" type="qcurve"/>
      <point x="160" y="55"/>
      <point x="178" y="72" type="qcurve"/>
      <point x="334" y="201"/>
      <point x="401" y="262" type="qcurve"/>
      <point x="520" y="367"/>
      <point x="616" y="465" type="qcurve"/>
      <point x="442" y="436"/>
      <point x="401" y="436" type="qcurve"/>
      <point x="274" y="436"/>
      <point x="195" y="489" type="qcurve"/>
      <point x="102" y="553"/>
      <point x="102" y="674" type="qcurve"/>
      <point x="102" y="874"/>
      <point x="285" y="1020" type="qcurve"/>
      <point x="455" y="1155"/>
      <point x="657" y="1155" type="qcurve"/>
      <point x="827" y="1155"/>
      <point x="932" y="1069" type="qcurve"/>
      <point x="1047" y="975"/>
    </contour>
    <contour>
      <point x="752" y="825" type="qcurve"/>
      <point x="752" y="877"/>
      <point x="680" y="940"/>
      <point x="629" y="940" type="qcurve"/>
      <point x="563" y="940"/>
      <point x="485" y="887" type="qcurve"/>
      <point x="401" y="829"/>
      <point x="391" y="768" type="qcurve"/>
      <point x="385" y="739"/>
      <point x="385" y="713" type="qcurve"/>
      <point x="385" y="637"/>
      <point x="477" y="637" type="qcurve"/>
      <point x="465" y="637"/>
      <point x="535" y="643" type="qcurve"/>
      <point x="530" y="641" type="line"/>
      <point x="535" y="528"/>
      <point x="584" y="416" type="qcurve"/>
      <point x="672" y="565"/>
      <point x="692" y="612" type="qcurve"/>
      <point x="752" y="733"/>
    </contour>
  </outline>
</glyph>
<glyph name="at" format="2">
  <advance width="1638"/>
  <unicode hex="0040"/>
  <outline>
    <contour>
      <point x="1567" y="698" type="qcurve"/>
      <point x="1567" y="504"/>
      <point x="1266" y="240"/>
      <point x="1069" y="240" type="qcurve"/>
      <point x="1010" y="240"/>
      <point x="993" y="283" type="qcurve"/>
      <point x="983" y="309"/>
      <point x="985" y="381" type="qcurve"/>
      <point x="819" y="240"/>
      <point x="668" y="240" type="qcurve"/>
      <point x="565" y="240"/>
      <point x="426" y="397"/>
      <point x="426" y="500" type="qcurve"/>
      <point x="426" y="662"/>
      <point x="645" y="881"/>
      <point x="807" y="881" type="qcurve"/>
      <point x="899" y="881"/>
      <point x="971" y="836" type="qcurve"/>
      <point x="1024" y="801"/>
      <point x="1096" y="717" type="qcurve"/>
      <point x="1110" y="795"/>
      <point x="1116" y="811" type="qcurve"/>
      <point x="1137" y="868"/>
      <point x="1182" y="868" type="qcurve"/>
      <point x="1233" y="868"/>
      <point x="1233" y="827" type="qcurve"/>
      <point x="1233" y="795"/>
      <point x="1202" y="662" type="qcurve"/>
      <point x="1180" y="575"/>
      <point x="1159" y="487" type="qcurve"/>
      <point x="1145" y="426"/>
      <point x="1145" y="420" type="qcurve"/>
      <point x="1145" y="352"/>
      <point x="1229" y="352" type="qcurve"/>
      <point x="1337" y="352"/>
      <point x="1401" y="451" type="qcurve"/>
      <point x="1458" y="535"/>
      <point x="1458" y="649" type="qcurve"/>
      <point x="1458" y="883"/>
      <point x="1262" y="1004" type="qcurve"/>
      <point x="1098" y="1106"/>
      <point x="850" y="1106" type="qcurve"/>
      <point x="604" y="1106"/>
      <point x="422" y="969" type="qcurve"/>
      <point x="219" y="819"/>
      <point x="219" y="582" type="qcurve"/>
      <point x="219" y="328"/>
      <point x="424" y="186" type="qcurve"/>
      <point x="604" y="61"/>
      <point x="868" y="61" type="qcurve"/>
      <point x="1001" y="61"/>
      <point x="1112" y="86" type="qcurve"/>
      <point x="1204" y="109"/>
      <point x="1264" y="141" type="qcurve"/>
      <point x="1317" y="170"/>
      <point x="1327" y="170" type="qcurve"/>
      <point x="1368" y="170"/>
      <point x="1368" y="141" type="qcurve"/>
      <point x="1368" y="94"/>
      <point x="1165" y="25" type="qcurve"/>
      <point x="1022" y="-27"/>
      <point x="868" y="-27" type="qcurve"/>
      <point x="565" y="-27"/>
      <point x="336" y="123" type="qcurve"/>
      <point x="72" y="295"/>
      <point x="72" y="582" type="qcurve"/>
      <point x="72" y="866"/>
      <point x="330" y="1040" type="qcurve"/>
      <point x="559" y="1192"/>
      <point x="856" y="1192" type="qcurve"/>
      <point x="1122" y="1192"/>
      <point x="1323" y="1079" type="qcurve"/>
      <point x="1567" y="944"/>
    </contour>
    <contour>
      <point x="1051" y="584" type="qcurve"/>
      <point x="1051" y="666"/>
      <point x="987" y="713" type="qcurve"/>
      <point x="930" y="752"/>
      <point x="844" y="752" type="qcurve"/>
      <point x="748" y="752"/>
      <point x="672" y="696" type="qcurve"/>
      <point x="588" y="635"/>
      <point x="588" y="543" type="qcurve"/>
      <point x="588" y="369"/>
      <point x="776" y="369" type="qcurve"/>
      <point x="885" y="369"/>
      <point x="963" y="420" type="qcurve"/>
      <point x="1051" y="479"/>
    </contour>
  </outline>
</glyph>
<glyph name="B" format="2">
  <advance width="1014"/>
  <unicode hex="0042"/>
  <outline>
    <contour>
      <point x="991" y="770" type="qcurve"/>
      <point x="991" y="692"/>
      <point x="922" y="635" type="qcurve"/>
      <point x="883" y="602"/>
      <point x="782" y="555" type="qcurve"/>
      <point x="887" y="471"/>
      <point x="887" y="403" type="qcurve"/>
      <point x="887" y="248"/>
      <point x="649" y="180" type="qcurve"/>
      <point x="567" y="158"/>
      <point x="526" y="158" type="qcurve"/>
      <point x="397" y="158" type="line"/>
      <point x="352" y="158"/>
      <point x="319" y="174"/>
      <point x="219" y="276"/>
      <point x="217" y="291" type="qcurve"/>
      <point x="236" y="354"/>
      <point x="272" y="481" type="qcurve"/>
      <point x="289" y="541"/>
      <point x="379" y="776" type="qcurve"/>
      <point x="315" y="776"/>
      <point x="279" y="764" type="qcurve"/>
      <point x="268" y="762"/>
      <point x="248" y="756" type="qcurve"/>
      <point x="250" y="758" type="line"/>
      <point x="250" y="793"/>
      <point x="291" y="899"/>
      <point x="315" y="918" type="qcurve"/>
      <point x="352" y="946"/>
      <point x="471" y="965" type="qcurve"/>
      <point x="565" y="981"/>
      <point x="639" y="981" type="qcurve"/>
      <point x="760" y="981"/>
      <point x="862" y="934" type="qcurve"/>
      <point x="991" y="877"/>
    </contour>
    <contour>
      <point x="762" y="737" type="qcurve"/>
      <point x="762" y="825"/>
      <point x="600" y="825" type="qcurve"/>
      <point x="520" y="825"/>
      <point x="287" y="766" type="qcurve"/>
      <point x="358" y="762"/>
      <point x="430" y="756" type="qcurve"/>
      <point x="549" y="745"/>
      <point x="567" y="731" type="qcurve"/>
      <point x="567" y="725" type="line"/>
      <point x="567" y="719"/>
      <point x="524" y="608" type="qcurve"/>
      <point x="578" y="608" type="line"/>
      <point x="635" y="608"/>
      <point x="694" y="643" type="qcurve"/>
      <point x="762" y="684"/>
    </contour>
    <contour>
      <point x="670" y="408" type="qcurve"/>
      <point x="670" y="440"/>
      <point x="643" y="455" type="qcurve"/>
      <point x="600" y="479"/>
      <point x="598" y="481" type="qcurve"/>
      <point x="594" y="504"/>
      <point x="588" y="547" type="qcurve"/>
      <point x="584" y="565"/>
      <point x="559" y="627" type="qcurve"/>
      <point x="514" y="563"/>
      <point x="498" y="514" type="qcurve"/>
      <point x="428" y="305" type="line"/>
      <point x="469" y="295"/>
      <point x="489" y="295" type="qcurve"/>
      <point x="606" y="295"/>
      <point x="649" y="356" type="qcurve"/>
      <point x="670" y="385"/>
    </contour>
  </outline>
</glyph>
<glyph name="C" format="2">
  <advance width="889"/>
  <unicode hex="0043"/>
  <outline>
    <contour>
      <point x="881" y="840" type="qcurve"/>
      <point x="881" y="756"/>
      <point x="809" y="705"/>
      <point x="725" y="705" type="qcurve"/>
      <point x="684" y="705"/>
      <point x="676" y="717" type="qcurve"/>
      <point x="690" y="758"/>
      <point x="690" y="780" type="qcurve"/>
      <point x="690" y="827"/>
      <point x="627" y="827" type="qcurve"/>
      <point x="575" y="827"/>
      <point x="510" y="735" type="qcurve"/>
      <point x="457" y="662"/>
      <point x="432" y="596" type="qcurve"/>
      <point x="397" y="496"/>
      <point x="397" y="412" type="qcurve"/>
      <point x="397" y="342"/>
      <point x="477" y="342" type="qcurve"/>
      <point x="530" y="342"/>
      <point x="606" y="473"/>
      <point x="645" y="473" type="qcurve"/>
      <point x="690" y="473"/>
      <point x="739" y="467" type="qcurve"/>
      <point x="774" y="463"/>
      <point x="774" y="446" type="qcurve"/>
      <point x="774" y="428"/>
      <point x="758" y="389" type="qcurve"/>
      <point x="715" y="289"/>
      <point x="680" y="252" type="qcurve"/>
      <point x="639" y="211"/>
      <point x="541" y="178" type="qcurve"/>
      <point x="471" y="156"/>
      <point x="414" y="156" type="qcurve"/>
      <point x="293" y="156"/>
      <point x="233" y="250" type="qcurve"/>
      <point x="184" y="328"/>
      <point x="184" y="455" type="qcurve"/>
      <point x="184" y="512"/>
      <point x="217" y="606" type="qcurve"/>
      <point x="266" y="752"/>
      <point x="395" y="885" type="qcurve"/>
      <point x="492" y="983"/>
      <point x="672" y="983" type="qcurve"/>
      <point x="881" y="983"/>
    </contour>
  </outline>
</glyph>
<glyph name="D" format="2">
  <advance width="1047"/>
  <unicode hex="0044"/>
  <outline>
    <contour>
      <point x="989" y="653" type="qcurve"/>
      <point x="989" y="510"/>
      <point x="877" y="385" type="qcurve"/>
      <point x="782" y="279"/>
      <point x="635" y="209" type="qcurve"/>
      <point x="506" y="147"/>
      <point x="410" y="147" type="qcurve"/>
      <point x="315" y="147"/>
      <point x="215" y="256" type="qcurve"/>
      <point x="193" y="281"/>
      <point x="193" y="291" type="qcurve"/>
      <point x="193" y="358"/>
      <point x="258" y="541" type="qcurve"/>
      <point x="305" y="670"/>
      <point x="352" y="799" type="qcurve"/>
      <point x="295" y="797"/>
      <point x="227" y="776" type="qcurve"/>
      <point x="236" y="811"/>
      <point x="258" y="866" type="qcurve"/>
      <point x="287" y="932"/>
      <point x="324" y="952"/>
      <point x="492" y="975"/>
      <point x="520" y="975" type="qcurve"/>
      <point x="590" y="975"/>
      <point x="696" y="963" type="qcurve"/>
      <point x="811" y="950"/>
      <point x="989" y="768"/>
    </contour>
    <contour>
      <point x="760" y="637" type="qcurve"/>
      <point x="760" y="733"/>
      <point x="672" y="784" type="qcurve"/>
      <point x="598" y="827"/>
      <point x="498" y="827" type="qcurve"/>
      <point x="475" y="827"/>
      <point x="395" y="823" type="qcurve"/>
      <point x="399" y="797" type="line"/>
      <point x="416" y="795"/>
      <point x="461" y="766"/>
      <point x="471" y="764" type="qcurve"/>
      <point x="541" y="741"/>
      <point x="541" y="705" type="qcurve"/>
      <point x="541" y="686"/>
      <point x="516" y="629" type="qcurve"/>
      <point x="471" y="518"/>
      <point x="420" y="328" type="qcurve"/>
      <point x="506" y="340"/>
      <point x="541" y="350" type="qcurve"/>
      <point x="608" y="369"/>
      <point x="645" y="408" type="qcurve"/>
      <point x="760" y="524"/>
    </contour>
  </outline>
</glyph>
<glyph name="E" format="2">
  <advance width="915"/>
  <unicode hex="0045"/>
  <outline>
    <contour>
      <point x="942" y="950" type="qcurve"/>
      <point x="942" y="936"/>
      <point x="903" y="821"/>
      <point x="885" y="799"/>
      <point x="836" y="799" type="qcurve"/>
      <point x="788" y="799"/>
      <point x="600" y="807"/>
      <point x="553" y="807" type="qcurve"/>
      <point x="528" y="807"/>
      <point x="489" y="803" type="qcurve"/>
      <point x="440" y="799"/>
      <point x="426" y="799" type="qcurve"/>
      <point x="481" y="760"/>
      <point x="528" y="735" type="qcurve"/>
      <point x="537" y="733"/>
      <point x="555" y="723" type="qcurve"/>
      <point x="555" y="717"/>
      <point x="524" y="625" type="qcurve"/>
      <point x="547" y="625"/>
      <point x="733" y="625" type="qcurve"/>
      <point x="825" y="625"/>
      <point x="825" y="608" type="qcurve"/>
      <point x="825" y="598"/>
      <point x="803" y="537" type="qcurve"/>
      <point x="797" y="516"/>
      <point x="788" y="502" type="qcurve"/>
      <point x="776" y="475"/>
      <point x="758" y="467"/>
      <point x="727" y="467" type="qcurve"/>
      <point x="700" y="467"/>
      <point x="598" y="467"/>
      <point x="571" y="467" type="qcurve"/>
      <point x="569" y="467"/>
      <point x="467" y="467" type="qcurve"/>
      <point x="446" y="414"/>
      <point x="403" y="309" type="qcurve"/>
      <point x="432" y="309"/>
      <point x="686" y="309" type="qcurve"/>
      <point x="733" y="309"/>
      <point x="733" y="293" type="qcurve"/>
      <point x="733" y="281"/>
      <point x="711" y="215" type="qcurve"/>
      <point x="692" y="160"/>
      <point x="637" y="160" type="qcurve"/>
      <point x="590" y="160"/>
      <point x="498" y="160" type="qcurve"/>
      <point x="406" y="162"/>
      <point x="360" y="162" type="qcurve"/>
      <point x="274" y="162"/>
      <point x="227" y="205" type="qcurve"/>
      <point x="195" y="233"/>
      <point x="195" y="274" type="qcurve"/>
      <point x="195" y="311"/>
      <point x="215" y="371" type="qcurve"/>
      <point x="231" y="418"/>
      <point x="248" y="465" type="qcurve"/>
      <point x="186" y="465"/>
      <point x="186" y="485" type="qcurve"/>
      <point x="186" y="492"/>
      <point x="199" y="535" type="qcurve"/>
      <point x="215" y="594"/>
      <point x="246" y="629"/>
      <point x="301" y="623" type="qcurve"/>
      <point x="303" y="627"/>
      <point x="371" y="799" type="qcurve"/>
      <point x="334" y="799"/>
      <point x="276" y="809" type="qcurve"/>
      <point x="276" y="815"/>
      <point x="301" y="893" type="qcurve"/>
      <point x="319" y="948"/>
      <point x="354" y="971"/>
      <point x="418" y="971" type="qcurve"/>
      <point x="606" y="971" type="line"/>
      <point x="653" y="971"/>
      <point x="748" y="969" type="qcurve"/>
      <point x="842" y="969"/>
      <point x="889" y="969" type="qcurve"/>
      <point x="942" y="969"/>
    </contour>
  </outline>
</glyph>
<glyph name="F" format="2">
  <advance width="852"/>
  <unicode hex="0046"/>
  <outline>
    <contour>
      <point x="877" y="948" type="qcurve"/>
      <point x="877" y="942"/>
      <point x="856" y="879"/>
      <point x="848" y="848" type="qcurve"/>
      <point x="831" y="809"/>
      <point x="803" y="809" type="qcurve"/>
      <point x="760" y="809"/>
      <point x="584" y="815"/>
      <point x="541" y="815" type="qcurve"/>
      <point x="473" y="815"/>
      <point x="397" y="811" type="qcurve"/>
      <point x="426" y="795"/>
      <point x="485" y="768" type="qcurve"/>
      <point x="545" y="750"/>
      <point x="545" y="727" type="qcurve"/>
      <point x="545" y="694"/>
      <point x="516" y="627" type="qcurve"/>
      <point x="735" y="627" type="line"/>
      <point x="772" y="627"/>
      <point x="772" y="616" type="qcurve"/>
      <point x="772" y="575"/>
      <point x="758" y="528" type="qcurve"/>
      <point x="739" y="467"/>
      <point x="711" y="467" type="qcurve"/>
      <point x="455" y="469" type="line"/>
      <point x="432" y="393"/>
      <point x="410" y="317" type="qcurve"/>
      <point x="381" y="229"/>
      <point x="350" y="174" type="qcurve"/>
      <point x="344" y="166"/>
      <point x="322" y="166" type="qcurve"/>
      <point x="156" y="166"/>
      <point x="156" y="211" type="qcurve"/>
      <point x="156" y="217"/>
      <point x="195" y="326" type="qcurve"/>
      <point x="236" y="442"/>
      <point x="242" y="465" type="qcurve"/>
      <point x="215" y="467"/>
      <point x="178" y="479" type="qcurve"/>
      <point x="178" y="494"/>
      <point x="225" y="616"/>
      <point x="233" y="625" type="qcurve"/>
      <point x="242" y="627"/>
      <point x="258" y="629" type="qcurve"/>
      <point x="311" y="633"/>
      <point x="317" y="657" type="qcurve"/>
      <point x="362" y="813" type="line"/>
      <point x="326" y="813"/>
      <point x="254" y="819" type="qcurve"/>
      <point x="254" y="834"/>
      <point x="293" y="920" type="qcurve"/>
      <point x="309" y="956"/>
      <point x="338" y="973"/>
      <point x="379" y="973" type="qcurve"/>
      <point x="635" y="973"/>
      <point x="825" y="961" type="qcurve"/>
      <point x="877" y="956"/>
    </contour>
  </outline>
</glyph>
<glyph name="I" format="2">
  <advance width="709"/>
  <unicode hex="0049"/>
  <outline>
    <contour>
      <point x="678" y="934" type="qcurve"/>
      <point x="678" y="920"/>
      <point x="627" y="784" type="qcurve"/>
      <point x="604" y="727"/>
      <point x="559" y="610" type="qcurve"/>
      <point x="494" y="406"/>
      <point x="412" y="182" type="qcurve"/>
      <point x="399" y="164"/>
      <point x="373" y="164" type="qcurve"/>
      <point x="170" y="164"/>
      <point x="170" y="223" type="qcurve"/>
      <point x="170" y="252"/>
      <point x="424" y="930"/>
      <point x="446" y="956" type="qcurve"/>
      <point x="461" y="975"/>
      <point x="516" y="975" type="qcurve"/>
      <point x="678" y="975"/>
    </contour>
  </outline>
</glyph>
<glyph name="J" format="2">
  <advance width="842"/>
  <unicode hex="004A"/>
  <outline>
    <contour>
      <point x="852" y="928" type="qcurve"/>
      <point x="852" y="899"/>
      <point x="801" y="760" type="qcurve"/>
      <point x="766" y="668"/>
      <point x="733" y="578" type="qcurve"/>
      <point x="711" y="508"/>
      <point x="690" y="438" type="qcurve"/>
      <point x="664" y="354"/>
      <point x="633" y="303" type="qcurve"/>
      <point x="584" y="221"/>
      <point x="520" y="190" type="qcurve"/>
      <point x="465" y="166"/>
      <point x="365" y="166" type="qcurve"/>
      <point x="289" y="166"/>
      <point x="195" y="197" type="qcurve"/>
      <point x="111" y="223"/>
      <point x="111" y="328" type="qcurve"/>
      <point x="111" y="365"/>
      <point x="123" y="430" type="qcurve"/>
      <point x="139" y="506"/>
      <point x="160" y="518" type="qcurve"/>
      <point x="172" y="526"/>
      <point x="254" y="526" type="qcurve"/>
      <point x="322" y="526"/>
      <point x="322" y="508" type="qcurve"/>
      <point x="322" y="485"/>
      <point x="285" y="395"/>
      <point x="285" y="369" type="qcurve"/>
      <point x="285" y="313"/>
      <point x="362" y="313" type="qcurve"/>
      <point x="426" y="313"/>
      <point x="461" y="383" type="qcurve"/>
      <point x="467" y="397"/>
      <point x="489" y="467" type="qcurve"/>
      <point x="535" y="590"/>
      <point x="616" y="840" type="qcurve"/>
      <point x="631" y="883"/>
      <point x="643" y="926" type="qcurve"/>
      <point x="666" y="975"/>
      <point x="711" y="975" type="qcurve"/>
      <point x="852" y="975"/>
    </contour>
  </outline>
</glyph>
<glyph name="K" format="2">
  <advance width="1133"/>
  <unicode hex="004B"/>
  <outline>
    <contour>
      <point x="1155" y="897" type="qcurve"/>
      <point x="1155" y="874"/>
      <point x="1114" y="813" type="qcurve"/>
      <point x="942" y="551"/>
      <point x="694" y="500" type="qcurve"/>
      <point x="705" y="475"/>
      <point x="770" y="389" type="qcurve"/>
      <point x="860" y="272"/>
      <point x="940" y="137" type="qcurve"/>
      <point x="938" y="127"/>
      <point x="905" y="113" type="qcurve"/>
      <point x="862" y="92"/>
      <point x="860" y="92" type="qcurve"/>
      <point x="850" y="90"/>
      <point x="788" y="66"/>
      <point x="772" y="66" type="qcurve"/>
      <point x="752" y="66"/>
      <point x="598" y="311" type="qcurve"/>
      <point x="559" y="373"/>
      <point x="489" y="455" type="qcurve"/>
      <point x="489" y="360"/>
      <point x="473" y="295" type="qcurve"/>
      <point x="465" y="260"/>
      <point x="422" y="145" type="qcurve"/>
      <point x="416" y="145" type="line"/>
      <point x="375" y="143"/>
      <point x="311" y="152" type="qcurve"/>
      <point x="227" y="162"/>
      <point x="227" y="184" type="qcurve"/>
      <point x="227" y="215"/>
      <point x="281" y="365" type="qcurve"/>
      <point x="317" y="461"/>
      <point x="354" y="557" type="qcurve"/>
      <point x="391" y="688"/>
      <point x="487" y="940" type="qcurve"/>
      <point x="498" y="961"/>
      <point x="535" y="961" type="qcurve"/>
      <point x="694" y="961"/>
      <point x="694" y="922" type="qcurve"/>
      <point x="694" y="889"/>
      <point x="584" y="645" type="qcurve"/>
      <point x="639" y="635"/>
      <point x="643" y="635" type="qcurve"/>
      <point x="678" y="635"/>
      <point x="727" y="666" type="qcurve"/>
      <point x="889" y="768"/>
      <point x="954" y="905" type="qcurve"/>
      <point x="975" y="948"/>
      <point x="987" y="948" type="qcurve"/>
      <point x="1026" y="948"/>
      <point x="1081" y="936" type="qcurve"/>
      <point x="1155" y="920"/>
    </contour>
  </outline>
</glyph>
<glyph name="L" format="2">
  <advance width="778"/>
  <unicode hex="004C"/>
  <outline>
    <contour>
      <point x="676" y="332" type="qcurve"/>
      <point x="676" y="324"/>
      <point x="651" y="256" type="qcurve"/>
      <point x="631" y="199"/>
      <point x="625" y="193" type="qcurve"/>
      <point x="608" y="166"/>
      <point x="563" y="166" type="qcurve"/>
      <point x="475" y="166" type="line"/>
      <point x="317" y="166"/>
      <point x="256" y="172" type="qcurve"/>
      <point x="215" y="174"/>
      <point x="117" y="252"/>
      <point x="117" y="293" type="qcurve"/>
      <point x="117" y="352"/>
      <point x="147" y="436" type="qcurve"/>
      <point x="174" y="506"/>
      <point x="201" y="575" type="qcurve"/>
      <point x="248" y="711"/>
      <point x="356" y="977" type="qcurve"/>
      <point x="367" y="983"/>
      <point x="395" y="983" type="qcurve"/>
      <point x="565" y="983"/>
      <point x="565" y="946" type="qcurve"/>
      <point x="565" y="924"/>
      <point x="539" y="856" type="qcurve"/>
      <point x="457" y="655"/>
      <point x="350" y="338" type="qcurve"/>
      <point x="418" y="336"/>
      <point x="657" y="336" type="qcurve"/>
      <point x="676" y="336"/>
    </contour>
  </outline>
</glyph>
<glyph name="M" format="2">
  <advance width="1362"/>
  <unicode hex="004D"/>
  <outline>
    <contour>
      <point x="1307" y="911" type="qcurve"/>
      <point x="1307" y="897"/>
      <point x="1292" y="788" type="qcurve"/>
      <point x="1280" y="709"/>
      <point x="1257" y="549" type="qcurve"/>
      <point x="1247" y="436"/>
      <point x="1214" y="213" type="qcurve"/>
      <point x="1206" y="160"/>
      <point x="1149" y="160" type="qcurve"/>
      <point x="1028" y="160"/>
      <point x="1001" y="174" type="qcurve"/>
      <point x="989" y="178"/>
      <point x="989" y="199" type="qcurve"/>
      <point x="989" y="217"/>
      <point x="1012" y="328" type="qcurve"/>
      <point x="1049" y="451"/>
      <point x="1102" y="698" type="qcurve"/>
      <point x="1061" y="645"/>
      <point x="946" y="518" type="qcurve"/>
      <point x="860" y="424"/>
      <point x="801" y="334" type="qcurve"/>
      <point x="764" y="279"/>
      <point x="717" y="279" type="qcurve"/>
      <point x="635" y="279"/>
      <point x="612" y="293" type="qcurve"/>
      <point x="580" y="311"/>
      <point x="580" y="383" type="qcurve"/>
      <point x="580" y="412"/>
      <point x="573" y="602" type="qcurve"/>
      <point x="569" y="770" type="line"/>
      <point x="522" y="608"/>
      <point x="422" y="287" type="qcurve"/>
      <point x="391" y="193"/>
      <point x="365" y="166"/>
      <point x="346" y="166" type="qcurve"/>
      <point x="203" y="166"/>
      <point x="203" y="201" type="qcurve"/>
      <point x="203" y="258"/>
      <point x="465" y="950"/>
      <point x="494" y="965" type="qcurve"/>
      <point x="508" y="973"/>
      <point x="545" y="973" type="qcurve"/>
      <point x="565" y="973"/>
      <point x="602" y="969" type="qcurve"/>
      <point x="688" y="956"/>
      <point x="719" y="922"/>
      <point x="725" y="834" type="qcurve"/>
      <point x="727" y="819"/>
      <point x="733" y="782" type="qcurve"/>
      <point x="739" y="754"/>
      <point x="739" y="733" type="qcurve"/>
      <point x="735" y="625" type="line"/>
      <point x="735" y="592"/>
      <point x="739" y="549" type="qcurve"/>
      <point x="741" y="530"/>
      <point x="729" y="477" type="qcurve"/>
      <point x="807" y="606"/>
      <point x="899" y="715" type="qcurve"/>
      <point x="930" y="752"/>
      <point x="1096" y="934" type="qcurve"/>
      <point x="1126" y="969"/>
      <point x="1155" y="969" type="qcurve"/>
      <point x="1307" y="969"/>
    </contour>
  </outline>
</glyph>
<glyph name="N" format="2">
  <advance width="1063"/>
  <unicode hex="004E"/>
  <outline>
    <contour>
      <point x="1061" y="918" type="qcurve"/>
      <point x="1061" y="870"/>
      <point x="985" y="637" type="qcurve"/>
      <point x="920" y="434"/>
      <point x="883" y="346" type="qcurve"/>
      <point x="866" y="311"/>
      <point x="850" y="276" type="qcurve"/>
      <point x="834" y="236"/>
      <point x="834" y="203" type="qcurve"/>
      <point x="834" y="197"/>
      <point x="842" y="172" type="qcurve"/>
      <point x="836" y="166"/>
      <point x="815" y="166" type="qcurve"/>
      <point x="662" y="166"/>
      <point x="625" y="211" type="qcurve"/>
      <point x="565" y="481"/>
      <point x="494" y="811" type="qcurve"/>
      <point x="432" y="479"/>
      <point x="369" y="274" type="qcurve"/>
      <point x="362" y="248"/>
      <point x="344" y="195" type="qcurve"/>
      <point x="330" y="166"/>
      <point x="303" y="166" type="qcurve"/>
      <point x="150" y="166"/>
      <point x="150" y="211" type="qcurve"/>
      <point x="150" y="219"/>
      <point x="236" y="489" type="qcurve"/>
      <point x="317" y="748"/>
      <point x="334" y="797" type="qcurve"/>
      <point x="397" y="977"/>
      <point x="414" y="977" type="qcurve"/>
      <point x="446" y="977"/>
      <point x="571" y="948"/>
      <point x="598" y="934" type="qcurve"/>
      <point x="653" y="901"/>
      <point x="702" y="664" type="qcurve"/>
      <point x="727" y="512"/>
      <point x="754" y="360" type="qcurve"/>
      <point x="764" y="446"/>
      <point x="782" y="621" type="qcurve"/>
      <point x="788" y="694"/>
      <point x="823" y="795" type="qcurve"/>
      <point x="854" y="879"/>
      <point x="885" y="963" type="qcurve"/>
      <point x="893" y="971"/>
      <point x="913" y="971" type="qcurve"/>
      <point x="948" y="971"/>
      <point x="997" y="958" type="qcurve"/>
      <point x="1061" y="940"/>
    </contour>
  </outline>
</glyph>
<glyph name="P" format="2">
  <advance width="948"/>
  <unicode hex="0050"/>
  <outline>
    <contour>
      <point x="944" y="737" type="qcurve"/>
      <point x="944" y="627"/>
      <point x="850" y="532" type="qcurve"/>
      <point x="766" y="449"/>
      <point x="653" y="416" type="qcurve"/>
      <point x="586" y="397"/>
      <point x="565" y="397" type="qcurve"/>
      <point x="541" y="397"/>
      <point x="524" y="469" type="qcurve"/>
      <point x="522" y="481"/>
      <point x="510" y="502" type="qcurve"/>
      <point x="500" y="516"/>
      <point x="500" y="541" type="qcurve"/>
      <point x="481" y="508"/>
      <point x="459" y="467" type="qcurve"/>
      <point x="465" y="473"/>
      <point x="467" y="475" type="qcurve"/>
      <point x="467" y="473"/>
      <point x="467" y="471" type="qcurve"/>
      <point x="467" y="455"/>
      <point x="381" y="182"/>
      <point x="373" y="168" type="qcurve"/>
      <point x="358" y="160"/>
      <point x="326" y="160" type="qcurve"/>
      <point x="184" y="160"/>
      <point x="184" y="197" type="qcurve"/>
      <point x="184" y="217"/>
      <point x="281" y="508" type="qcurve"/>
      <point x="336" y="674"/>
      <point x="389" y="842" type="qcurve"/>
      <point x="330" y="780"/>
      <point x="319" y="774" type="qcurve"/>
      <point x="274" y="737"/>
      <point x="233" y="737" type="qcurve"/>
      <point x="217" y="737"/>
      <point x="217" y="743" type="qcurve"/>
      <point x="217" y="797"/>
      <point x="238" y="852" type="qcurve"/>
      <point x="268" y="936"/>
      <point x="367" y="961" type="qcurve"/>
      <point x="420" y="975"/>
      <point x="543" y="975" type="qcurve"/>
      <point x="627" y="975"/>
      <point x="709" y="965" type="qcurve"/>
      <point x="799" y="952"/>
      <point x="944" y="825"/>
    </contour>
    <contour>
      <point x="729" y="711" type="qcurve"/>
      <point x="729" y="774"/>
      <point x="670" y="795" type="qcurve"/>
      <point x="614" y="803"/>
      <point x="557" y="811" type="qcurve"/>
      <point x="547" y="813"/>
      <point x="492" y="827"/>
      <point x="475" y="827" type="qcurve"/>
      <point x="457" y="827"/>
      <point x="422" y="823" type="qcurve"/>
      <point x="449" y="803"/>
      <point x="502" y="774" type="qcurve"/>
      <point x="508" y="772"/>
      <point x="508" y="774" type="qcurve"/>
      <point x="508" y="768"/>
      <point x="551" y="717"/>
      <point x="551" y="700" type="qcurve"/>
      <point x="551" y="672"/>
      <point x="498" y="559" type="qcurve"/>
      <point x="582" y="569"/>
      <point x="643" y="600" type="qcurve"/>
      <point x="729" y="643"/>
    </contour>
  </outline>
</glyph>
<glyph name="Q" format="2">
  <advance width="1065"/>
  <unicode hex="0051"/>
  <outline>
    <contour>
      <point x="1016" y="731" type="qcurve"/>
      <point x="1016" y="432"/>
      <point x="752" y="227" type="qcurve"/>
      <point x="836" y="152"/>
      <point x="836" y="133" type="qcurve"/>
      <point x="836" y="123"/>
      <point x="692" y="37"/>
      <point x="676" y="37" type="qcurve"/>
      <point x="662" y="37"/>
      <point x="616" y="78" type="qcurve"/>
      <point x="588" y="106"/>
      <point x="559" y="135" type="qcurve"/>
      <point x="508" y="133"/>
      <point x="494" y="133" type="qcurve"/>
      <point x="373" y="133"/>
      <point x="219" y="291"/>
      <point x="219" y="412" type="qcurve"/>
      <point x="219" y="492"/>
      <point x="264" y="616" type="qcurve"/>
      <point x="315" y="766"/>
      <point x="563" y="961"/>
      <point x="719" y="961" type="qcurve"/>
      <point x="741" y="961"/>
      <point x="741" y="952" type="qcurve"/>
      <point x="741" y="918"/>
      <point x="692" y="852" type="qcurve"/>
      <point x="778" y="852" type="line"/>
      <point x="903" y="944"/>
      <point x="942" y="944" type="qcurve"/>
      <point x="1016" y="944"/>
    </contour>
    <contour>
      <point x="782" y="725" type="qcurve"/>
      <point x="782" y="780"/>
      <point x="758" y="877" type="qcurve"/>
      <point x="729" y="846"/>
      <point x="688" y="786" type="qcurve"/>
      <point x="586" y="752"/>
      <point x="438" y="532"/>
      <point x="438" y="424" type="qcurve"/>
      <point x="438" y="365"/>
      <point x="467" y="336" type="qcurve"/>
      <point x="496" y="328"/>
      <point x="504" y="328" type="qcurve"/>
      <point x="537" y="328"/>
      <point x="588" y="387"/>
      <point x="590" y="387" type="qcurve"/>
      <point x="608" y="387"/>
      <point x="645" y="360" type="qcurve"/>
      <point x="782" y="520"/>
    </contour>
  </outline>
</glyph>
<glyph name="S" format="2">
  <advance width="803"/>
  <unicode hex="0053"/>
  <outline>
    <contour>
      <point x="856" y="940" type="qcurve"/>
      <point x="856" y="909"/>
      <point x="836" y="838" type="qcurve"/>
      <point x="819" y="782"/>
      <point x="786" y="772" type="qcurve"/>
      <point x="778" y="770"/>
      <point x="694" y="770" type="qcurve"/>
      <point x="670" y="770"/>
      <point x="643" y="774" type="qcurve"/>
      <point x="657" y="813" type="line"/>
      <point x="594" y="813" type="line"/>
      <point x="559" y="813"/>
      <point x="494" y="776"/>
      <point x="494" y="741" type="qcurve"/>
      <point x="494" y="717"/>
      <point x="524" y="674"/>
      <point x="557" y="631" type="qcurve"/>
      <point x="662" y="500"/>
      <point x="662" y="416" type="qcurve"/>
      <point x="662" y="276"/>
      <point x="547" y="211" type="qcurve"/>
      <point x="453" y="156"/>
      <point x="303" y="156" type="qcurve"/>
      <point x="209" y="156"/>
      <point x="150" y="164" type="qcurve"/>
      <point x="111" y="170"/>
      <point x="94" y="193"/>
      <point x="94" y="231" type="qcurve"/>
      <point x="94" y="254"/>
      <point x="129" y="379"/>
      <point x="152" y="403"/>
      <point x="184" y="403" type="qcurve"/>
      <point x="285" y="403"/>
      <point x="293" y="401" type="qcurve"/>
      <point x="291" y="379"/>
      <point x="276" y="332" type="qcurve"/>
      <point x="315" y="319"/>
      <point x="340" y="319" type="qcurve"/>
      <point x="453" y="319"/>
      <point x="453" y="393" type="qcurve"/>
      <point x="453" y="449"/>
      <point x="266" y="676"/>
      <point x="266" y="735" type="qcurve"/>
      <point x="266" y="817"/>
      <point x="373" y="891" type="qcurve"/>
      <point x="463" y="952"/>
      <point x="555" y="967" type="qcurve"/>
      <point x="635" y="979"/>
      <point x="756" y="979" type="qcurve"/>
      <point x="856" y="979"/>
    </contour>
  </outline>
</glyph>
<glyph name="T" format="2">
  <advance width="903"/>
  <unicode hex="0054"/>
  <outline>
    <contour>
      <point x="975" y="952" type="qcurve"/>
      <point x="975" y="940"/>
      <point x="956" y="887" type="qcurve"/>
      <point x="944" y="854"/>
      <point x="932" y="821" type="qcurve"/>
      <point x="922" y="809"/>
      <point x="862" y="809" type="qcurve"/>
      <point x="827" y="809"/>
      <point x="688" y="813"/>
      <point x="651" y="813" type="qcurve"/>
      <point x="530" y="813"/>
      <point x="541" y="815" type="qcurve"/>
      <point x="588" y="782"/>
      <point x="690" y="743" type="qcurve"/>
      <point x="725" y="731"/>
      <point x="725" y="717" type="qcurve"/>
      <point x="725" y="702"/>
      <point x="688" y="600" type="qcurve"/>
      <point x="645" y="465"/>
      <point x="555" y="201" type="qcurve"/>
      <point x="539" y="160"/>
      <point x="492" y="160" type="qcurve"/>
      <point x="457" y="160"/>
      <point x="401" y="168" type="qcurve"/>
      <point x="328" y="178"/>
      <point x="328" y="190" type="qcurve"/>
      <point x="328" y="223"/>
      <point x="352" y="283" type="qcurve"/>
      <point x="371" y="328"/>
      <point x="389" y="373" type="qcurve"/>
      <point x="430" y="492"/>
      <point x="520" y="727" type="qcurve"/>
      <point x="535" y="762"/>
      <point x="535" y="776" type="qcurve"/>
      <point x="535" y="817"/>
      <point x="489" y="817" type="qcurve"/>
      <point x="465" y="817"/>
      <point x="373" y="813"/>
      <point x="350" y="813" type="qcurve"/>
      <point x="281" y="813"/>
      <point x="281" y="842" type="qcurve"/>
      <point x="281" y="864"/>
      <point x="311" y="952"/>
      <point x="342" y="971"/>
      <point x="395" y="971" type="qcurve"/>
      <point x="541" y="971" type="line"/>
      <point x="604" y="971"/>
      <point x="915" y="963" type="qcurve"/>
      <point x="975" y="961"/>
    </contour>
  </outline>
</glyph>
<glyph name="U" format="2">
  <advance width="1047"/>
  <unicode hex="0055"/>
  <outline>
    <contour>
      <point x="1051" y="928" type="qcurve"/>
      <point x="1051" y="889"/>
      <point x="1014" y="782" type="qcurve"/>
      <point x="987" y="707"/>
      <point x="958" y="633" type="qcurve"/>
      <point x="866" y="354"/>
      <point x="770" y="229" type="qcurve"/>
      <point x="713" y="156"/>
      <point x="563" y="156" type="qcurve"/>
      <point x="432" y="156"/>
      <point x="342" y="203" type="qcurve"/>
      <point x="227" y="264"/>
      <point x="227" y="383" type="qcurve"/>
      <point x="227" y="436"/>
      <point x="281" y="606" type="qcurve"/>
      <point x="305" y="690"/>
      <point x="356" y="858" type="qcurve"/>
      <point x="367" y="893"/>
      <point x="389" y="961" type="qcurve"/>
      <point x="397" y="975"/>
      <point x="449" y="975" type="qcurve"/>
      <point x="606" y="975"/>
      <point x="606" y="948" type="qcurve"/>
      <point x="606" y="930"/>
      <point x="551" y="772" type="qcurve"/>
      <point x="481" y="569"/>
      <point x="449" y="412" type="qcurve"/>
      <point x="459" y="367"/>
      <point x="496" y="336"/>
      <point x="541" y="336" type="qcurve"/>
      <point x="559" y="336"/>
      <point x="578" y="340" type="qcurve"/>
      <point x="641" y="348"/>
      <point x="698" y="492" type="qcurve"/>
      <point x="731" y="594"/>
      <point x="764" y="694" type="qcurve"/>
      <point x="786" y="756"/>
      <point x="827" y="879" type="qcurve"/>
      <point x="834" y="901"/>
      <point x="852" y="942" type="qcurve"/>
      <point x="866" y="963"/>
      <point x="913" y="963" type="qcurve"/>
      <point x="1051" y="963"/>
    </contour>
  </outline>
</glyph>
<glyph name="W" format="2">
  <advance width="1497"/>
  <unicode hex="0057"/>
  <outline>
    <contour>
      <point x="1530" y="926" type="qcurve"/>
      <point x="1530" y="874"/>
      <point x="1149" y="211"/>
      <point x="1100" y="172" type="qcurve"/>
      <point x="1083" y="160"/>
      <point x="1065" y="160" type="qcurve"/>
      <point x="942" y="160"/>
      <point x="918" y="197" type="qcurve"/>
      <point x="905" y="217"/>
      <point x="905" y="350" type="qcurve"/>
      <point x="905" y="391"/>
      <point x="903" y="512" type="qcurve"/>
      <point x="901" y="604"/>
      <point x="903" y="674" type="qcurve"/>
      <point x="862" y="596"/>
      <point x="786" y="465" type="qcurve"/>
      <point x="764" y="432"/>
      <point x="723" y="367" type="qcurve"/>
      <point x="696" y="317"/>
      <point x="670" y="266" type="qcurve"/>
      <point x="635" y="207"/>
      <point x="602" y="176" type="qcurve"/>
      <point x="592" y="164"/>
      <point x="573" y="164" type="qcurve"/>
      <point x="438" y="164"/>
      <point x="422" y="205" type="qcurve"/>
      <point x="416" y="225"/>
      <point x="416" y="430" type="qcurve"/>
      <point x="416" y="512"/>
      <point x="422" y="834"/>
      <point x="422" y="913" type="qcurve"/>
      <point x="422" y="975"/>
      <point x="465" y="975" type="qcurve"/>
      <point x="508" y="975"/>
      <point x="582" y="958" type="qcurve"/>
      <point x="627" y="950"/>
      <point x="627" y="913" type="qcurve"/>
      <point x="627" y="813"/>
      <point x="614" y="655" type="qcurve"/>
      <point x="594" y="426"/>
      <point x="592" y="399" type="qcurve"/>
      <point x="707" y="631"/>
      <point x="856" y="901" type="qcurve"/>
      <point x="879" y="926"/>
      <point x="909" y="926" type="qcurve"/>
      <point x="1026" y="926"/>
      <point x="1053" y="907" type="qcurve"/>
      <point x="1057" y="883"/>
      <point x="1057" y="811" type="qcurve"/>
      <point x="1057" y="532"/>
      <point x="1049" y="432" type="qcurve"/>
      <point x="1133" y="555"/>
      <point x="1241" y="768" type="qcurve"/>
      <point x="1288" y="862"/>
      <point x="1350" y="965" type="qcurve"/>
      <point x="1358" y="969"/>
      <point x="1368" y="969" type="qcurve"/>
      <point x="1530" y="969"/>
    </contour>
  </outline>
</glyph>
<glyph name="X" format="2">
  <advance width="948"/>
  <unicode hex="0058"/>
  <outline>
    <contour>
      <point x="942" y="932" type="qcurve"/>
      <point x="942" y="922"/>
      <point x="664" y="547" type="qcurve"/>
      <point x="702" y="436"/>
      <point x="788" y="287" type="qcurve"/>
      <point x="829" y="215"/>
      <point x="829" y="182" type="qcurve"/>
      <point x="829" y="158"/>
      <point x="758" y="158" type="qcurve"/>
      <point x="731" y="158" type="line"/>
      <point x="662" y="158"/>
      <point x="600" y="211"/>
      <point x="553" y="340"/>
      <point x="514" y="428" type="qcurve"/>
      <point x="424" y="160"/>
      <point x="328" y="158" type="qcurve"/>
      <point x="285" y="158" type="line"/>
      <point x="164" y="156"/>
      <point x="164" y="188" type="qcurve"/>
      <point x="164" y="199"/>
      <point x="289" y="362" type="qcurve"/>
      <point x="428" y="545"/>
      <point x="436" y="561" type="qcurve"/>
      <point x="408" y="639"/>
      <point x="383" y="692" type="qcurve"/>
      <point x="354" y="754"/>
      <point x="324" y="815" type="qcurve"/>
      <point x="287" y="897"/>
      <point x="287" y="944" type="qcurve"/>
      <point x="287" y="969"/>
      <point x="344" y="969" type="qcurve"/>
      <point x="467" y="969"/>
      <point x="494" y="948" type="qcurve"/>
      <point x="506" y="938"/>
      <point x="567" y="707" type="qcurve"/>
      <point x="596" y="743"/>
      <point x="651" y="821" type="qcurve"/>
      <point x="670" y="854"/>
      <point x="711" y="915" type="qcurve"/>
      <point x="748" y="967"/>
      <point x="784" y="967" type="qcurve"/>
      <point x="942" y="967"/>
    </contour>
  </outline>
</glyph>
<glyph name="Y" format="2">
  <advance width="922"/>
  <unicode hex="0059"/>
  <outline>
    <contour>
      <point x="956" y="934" type="qcurve"/>
      <point x="956" y="909"/>
      <point x="942" y="889" type="qcurve"/>
      <point x="573" y="317" type="line"/>
      <point x="545" y="268"/>
      <point x="481" y="178" type="qcurve"/>
      <point x="463" y="158"/>
      <point x="432" y="158" type="qcurve"/>
      <point x="391" y="158"/>
      <point x="340" y="166" type="qcurve"/>
      <point x="268" y="178"/>
      <point x="268" y="199" type="qcurve"/>
      <point x="268" y="209"/>
      <point x="336" y="313" type="qcurve"/>
      <point x="360" y="354"/>
      <point x="412" y="436" type="qcurve"/>
      <point x="408" y="457"/>
      <point x="371" y="604" type="qcurve"/>
      <point x="356" y="666"/>
      <point x="301" y="903"/>
      <point x="301" y="950" type="qcurve"/>
      <point x="301" y="977"/>
      <point x="319" y="977" type="qcurve"/>
      <point x="352" y="977"/>
      <point x="416" y="967" type="qcurve"/>
      <point x="492" y="954"/>
      <point x="500" y="942" type="qcurve"/>
      <point x="500" y="940"/>
      <point x="524" y="799"/>
      <point x="524" y="741" type="qcurve"/>
      <point x="524" y="664"/>
      <point x="510" y="537" type="qcurve"/>
      <point x="563" y="637"/>
      <point x="616" y="739" type="qcurve"/>
      <point x="680" y="858"/>
      <point x="735" y="934" type="qcurve"/>
      <point x="764" y="971"/>
      <point x="793" y="971" type="qcurve"/>
      <point x="956" y="971"/>
    </contour>
  </outline>
</glyph>
<glyph name="underscore" format="2">
  <advance width="1223"/>
  <unicode hex="005F"/>
  <outline>
    <contour>
      <point x="1081" y="-330" type="line"/>
      <point x="-190" y="-330" type="line"/>
      <point x="-190" y="-223" type="line"/>
      <point x="1081" y="-223" type="line"/>
    </contour>
  </outline>
</glyph>
<glyph name="c" format="2">
  <advance width="838"/>
  <unicode hex="0063"/>
  <outline>
    <contour>
      <point x="831" y="801" type="qcurve"/>
      <point x="831" y="729"/>
      <point x="797" y="705" type="qcurve"/>
      <point x="770" y="684"/>
      <point x="696" y="684" type="qcurve"/>
      <point x="664" y="684"/>
      <point x="655" y="696" type="qcurve"/>
      <point x="668" y="731"/>
      <point x="668" y="750" type="qcurve"/>
      <point x="668" y="791"/>
      <point x="612" y="791" type="qcurve"/>
      <point x="569" y="791"/>
      <point x="512" y="713" type="qcurve"/>
      <point x="467" y="649"/>
      <point x="446" y="592" type="qcurve"/>
      <point x="418" y="506"/>
      <point x="418" y="434" type="qcurve"/>
      <point x="418" y="375"/>
      <point x="485" y="375" type="qcurve"/>
      <point x="530" y="375"/>
      <point x="596" y="485"/>
      <point x="629" y="485" type="qcurve"/>
      <point x="668" y="485"/>
      <point x="709" y="481" type="qcurve"/>
      <point x="741" y="479"/>
      <point x="741" y="465" type="qcurve"/>
      <point x="741" y="449"/>
      <point x="725" y="414" type="qcurve"/>
      <point x="688" y="328"/>
      <point x="659" y="297" type="qcurve"/>
      <point x="623" y="262"/>
      <point x="539" y="233" type="qcurve"/>
      <point x="479" y="215"/>
      <point x="430" y="215" type="qcurve"/>
      <point x="233" y="215"/>
      <point x="233" y="471" type="qcurve"/>
      <point x="233" y="520"/>
      <point x="262" y="602" type="qcurve"/>
      <point x="303" y="725"/>
      <point x="414" y="840" type="qcurve"/>
      <point x="498" y="924"/>
      <point x="651" y="924" type="qcurve"/>
      <point x="831" y="924"/>
    </contour>
  </outline>
</glyph>
<glyph name="d" format="2">
  <advance width="983"/>
  <unicode hex="0064"/>
  <outline>
    <contour>
      <point x="932" y="641" type="qcurve"/>
      <point x="932" y="518"/>
      <point x="836" y="410" type="qcurve"/>
      <point x="756" y="319"/>
      <point x="629" y="260" type="qcurve"/>
      <point x="518" y="207"/>
      <point x="436" y="207" type="qcurve"/>
      <point x="354" y="207"/>
      <point x="268" y="299" type="qcurve"/>
      <point x="250" y="319"/>
      <point x="250" y="330" type="qcurve"/>
      <point x="250" y="387"/>
      <point x="305" y="543" type="qcurve"/>
      <point x="346" y="655"/>
      <point x="387" y="766" type="qcurve"/>
      <point x="338" y="762"/>
      <point x="281" y="745" type="qcurve"/>
      <point x="287" y="776"/>
      <point x="305" y="823" type="qcurve"/>
      <point x="330" y="879"/>
      <point x="348" y="889" type="qcurve"/>
      <point x="360" y="895"/>
      <point x="436" y="905" type="qcurve"/>
      <point x="506" y="915"/>
      <point x="530" y="915" type="qcurve"/>
      <point x="590" y="915"/>
      <point x="680" y="905" type="qcurve"/>
      <point x="780" y="895"/>
      <point x="932" y="739"/>
    </contour>
    <contour>
      <point x="735" y="627" type="qcurve"/>
      <point x="735" y="709"/>
      <point x="659" y="752" type="qcurve"/>
      <point x="598" y="791"/>
      <point x="510" y="791" type="qcurve"/>
      <point x="492" y="791"/>
      <point x="422" y="784" type="qcurve"/>
      <point x="426" y="762" type="line"/>
      <point x="446" y="752"/>
      <point x="487" y="735" type="qcurve"/>
      <point x="547" y="717"/>
      <point x="547" y="684" type="qcurve"/>
      <point x="547" y="670"/>
      <point x="526" y="618" type="qcurve"/>
      <point x="487" y="524"/>
      <point x="444" y="362" type="qcurve"/>
      <point x="518" y="373"/>
      <point x="547" y="379" type="qcurve"/>
      <point x="606" y="395"/>
      <point x="637" y="428" type="qcurve"/>
      <point x="735" y="530"/>
    </contour>
  </outline>
</glyph>
<glyph name="e" format="2">
  <advance width="864"/>
  <unicode hex="0065"/>
  <outline>
    <contour>
      <point x="889" y="895" type="qcurve"/>
      <point x="889" y="883"/>
      <point x="854" y="784"/>
      <point x="840" y="764"/>
      <point x="797" y="764" type="qcurve"/>
      <point x="756" y="764"/>
      <point x="594" y="772"/>
      <point x="555" y="772" type="qcurve"/>
      <point x="535" y="772"/>
      <point x="500" y="770" type="qcurve"/>
      <point x="459" y="766"/>
      <point x="446" y="766" type="qcurve"/>
      <point x="494" y="733"/>
      <point x="532" y="711" type="qcurve"/>
      <point x="541" y="709"/>
      <point x="557" y="700" type="qcurve"/>
      <point x="557" y="694"/>
      <point x="530" y="616" type="qcurve"/>
      <point x="551" y="616"/>
      <point x="709" y="616" type="qcurve"/>
      <point x="788" y="616"/>
      <point x="788" y="602" type="qcurve"/>
      <point x="788" y="594"/>
      <point x="770" y="541" type="qcurve"/>
      <point x="764" y="522"/>
      <point x="758" y="510" type="qcurve"/>
      <point x="745" y="487"/>
      <point x="731" y="481"/>
      <point x="702" y="481" type="qcurve"/>
      <point x="680" y="481"/>
      <point x="592" y="481"/>
      <point x="569" y="481" type="qcurve"/>
      <point x="569" y="481"/>
      <point x="481" y="481" type="qcurve"/>
      <point x="465" y="434"/>
      <point x="428" y="346" type="qcurve"/>
      <point x="451" y="346"/>
      <point x="668" y="346" type="qcurve"/>
      <point x="709" y="346"/>
      <point x="709" y="332" type="qcurve"/>
      <point x="709" y="322"/>
      <point x="690" y="264" type="qcurve"/>
      <point x="674" y="217"/>
      <point x="627" y="217" type="qcurve"/>
      <point x="586" y="217"/>
      <point x="508" y="219" type="qcurve"/>
      <point x="428" y="219"/>
      <point x="389" y="219" type="qcurve"/>
      <point x="315" y="219"/>
      <point x="274" y="256" type="qcurve"/>
      <point x="248" y="281"/>
      <point x="248" y="317" type="qcurve"/>
      <point x="248" y="340"/>
      <point x="293" y="479" type="qcurve"/>
      <point x="240" y="479"/>
      <point x="240" y="496" type="qcurve"/>
      <point x="240" y="502"/>
      <point x="250" y="539" type="qcurve"/>
      <point x="264" y="590"/>
      <point x="291" y="618"/>
      <point x="338" y="614" type="qcurve"/>
      <point x="340" y="618"/>
      <point x="399" y="766" type="qcurve"/>
      <point x="367" y="766"/>
      <point x="317" y="774" type="qcurve"/>
      <point x="317" y="778"/>
      <point x="340" y="846" type="qcurve"/>
      <point x="354" y="895"/>
      <point x="385" y="913"/>
      <point x="438" y="913" type="qcurve"/>
      <point x="600" y="913" type="line"/>
      <point x="641" y="913"/>
      <point x="721" y="911" type="qcurve"/>
      <point x="801" y="911"/>
      <point x="842" y="911" type="qcurve"/>
      <point x="889" y="911"/>
    </contour>
  </outline>
</glyph>
<glyph name="g" format="2">
  <advance width="971"/>
  <unicode hex="0067"/>
  <outline>
    <contour>
      <point x="932" y="573" type="qcurve"/>
      <point x="932" y="565"/>
      <point x="907" y="483"/>
      <point x="864" y="463"/>
      <point x="819" y="463" type="qcurve"/>
      <point x="809" y="393"/>
      <point x="760" y="342" type="qcurve"/>
      <point x="715" y="295" type="line"/>
      <point x="639" y="217"/>
      <point x="485" y="217" type="qcurve"/>
      <point x="260" y="217"/>
      <point x="260" y="487" type="qcurve"/>
      <point x="260" y="549"/>
      <point x="348" y="745"/>
      <point x="387" y="793" type="qcurve"/>
      <point x="438" y="852"/>
      <point x="524" y="889" type="qcurve"/>
      <point x="598" y="920"/>
      <point x="651" y="920" type="qcurve"/>
      <point x="748" y="920"/>
      <point x="815" y="895" type="qcurve"/>
      <point x="913" y="856"/>
      <point x="913" y="774" type="qcurve"/>
      <point x="913" y="733"/>
      <point x="891" y="715"/>
      <point x="848" y="709" type="qcurve"/>
      <point x="766" y="696"/>
      <point x="725" y="696" type="qcurve"/>
      <point x="711" y="696"/>
      <point x="711" y="705" type="qcurve"/>
      <point x="711" y="711"/>
      <point x="715" y="737"/>
      <point x="715" y="743" type="qcurve"/>
      <point x="715" y="791"/>
      <point x="649" y="791" type="qcurve"/>
      <point x="553" y="791"/>
      <point x="485" y="666" type="qcurve"/>
      <point x="428" y="559"/>
      <point x="428" y="453" type="qcurve"/>
      <point x="428" y="414"/>
      <point x="473" y="352"/>
      <point x="510" y="352" type="qcurve"/>
      <point x="612" y="352"/>
      <point x="614" y="455" type="qcurve"/>
      <point x="565" y="442"/>
      <point x="530" y="442" type="qcurve"/>
      <point x="512" y="442"/>
      <point x="512" y="453" type="qcurve"/>
      <point x="512" y="461"/>
      <point x="537" y="547"/>
      <point x="541" y="551" type="qcurve"/>
      <point x="563" y="586"/>
      <point x="831" y="586" type="qcurve"/>
      <point x="932" y="586"/>
    </contour>
  </outline>
</glyph>
<glyph name="j" format="2">
  <advance width="791"/>
  <unicode hex="006A"/>
  <outline>
    <contour>
      <point x="799" y="879" type="qcurve"/>
      <point x="799" y="852"/>
      <point x="756" y="733" type="qcurve"/>
      <point x="725" y="653"/>
      <point x="696" y="575" type="qcurve"/>
      <point x="678" y="516"/>
      <point x="659" y="457" type="qcurve"/>
      <point x="637" y="385"/>
      <point x="610" y="342" type="qcurve"/>
      <point x="569" y="270"/>
      <point x="514" y="246" type="qcurve"/>
      <point x="467" y="225"/>
      <point x="381" y="225" type="qcurve"/>
      <point x="231" y="225"/>
      <point x="184" y="281" type="qcurve"/>
      <point x="162" y="307"/>
      <point x="162" y="362" type="qcurve"/>
      <point x="162" y="393"/>
      <point x="174" y="449" type="qcurve"/>
      <point x="188" y="516"/>
      <point x="217" y="532"/>
      <point x="285" y="532" type="qcurve"/>
      <point x="344" y="532"/>
      <point x="344" y="516" type="qcurve"/>
      <point x="344" y="498"/>
      <point x="313" y="420"/>
      <point x="313" y="397" type="qcurve"/>
      <point x="313" y="350"/>
      <point x="379" y="350" type="qcurve"/>
      <point x="434" y="350"/>
      <point x="463" y="410" type="qcurve"/>
      <point x="469" y="422"/>
      <point x="489" y="481" type="qcurve"/>
      <point x="526" y="588"/>
      <point x="598" y="801" type="qcurve"/>
      <point x="608" y="838"/>
      <point x="639" y="918"/>
      <point x="678" y="918" type="qcurve"/>
      <point x="799" y="918"/>
    </contour>
  </outline>
</glyph>
<glyph name="k" format="2">
  <advance width="1071"/>
  <unicode hex="006B"/>
  <outline>
    <contour>
      <point x="1090" y="842" type="qcurve"/>
      <point x="1090" y="823"/>
      <point x="1053" y="770" type="qcurve"/>
      <point x="907" y="547"/>
      <point x="694" y="502" type="qcurve"/>
      <point x="702" y="481"/>
      <point x="758" y="408" type="qcurve"/>
      <point x="836" y="307"/>
      <point x="903" y="190" type="qcurve"/>
      <point x="903" y="182"/>
      <point x="874" y="170" type="qcurve"/>
      <point x="838" y="154"/>
      <point x="836" y="152" type="qcurve"/>
      <point x="827" y="150"/>
      <point x="774" y="129"/>
      <point x="762" y="129" type="qcurve"/>
      <point x="743" y="129"/>
      <point x="610" y="340" type="qcurve"/>
      <point x="578" y="393"/>
      <point x="518" y="463" type="qcurve"/>
      <point x="518" y="381"/>
      <point x="504" y="326" type="qcurve"/>
      <point x="498" y="297"/>
      <point x="459" y="199" type="qcurve"/>
      <point x="455" y="199" type="line"/>
      <point x="420" y="197"/>
      <point x="367" y="203" type="qcurve"/>
      <point x="293" y="213"/>
      <point x="293" y="231" type="qcurve"/>
      <point x="293" y="248"/>
      <point x="403" y="551" type="qcurve"/>
      <point x="434" y="664"/>
      <point x="518" y="881" type="qcurve"/>
      <point x="524" y="897"/>
      <point x="557" y="897" type="qcurve"/>
      <point x="694" y="897"/>
      <point x="694" y="864" type="qcurve"/>
      <point x="694" y="836"/>
      <point x="598" y="625" type="qcurve"/>
      <point x="647" y="616"/>
      <point x="649" y="616" type="qcurve"/>
      <point x="680" y="616"/>
      <point x="723" y="643" type="qcurve"/>
      <point x="860" y="733"/>
      <point x="915" y="848" type="qcurve"/>
      <point x="934" y="887"/>
      <point x="944" y="887" type="qcurve"/>
      <point x="977" y="887"/>
      <point x="1026" y="877" type="qcurve"/>
      <point x="1090" y="862"/>
    </contour>
  </outline>
</glyph>
<glyph name="m" format="2">
  <advance width="1276"/>
  <unicode hex="006D"/>
  <outline>
    <contour>
      <point x="1229" y="862" type="qcurve"/>
      <point x="1229" y="850"/>
      <point x="1217" y="758" type="qcurve"/>
      <point x="1204" y="688"/>
      <point x="1186" y="551" type="qcurve"/>
      <point x="1176" y="455"/>
      <point x="1149" y="264" type="qcurve"/>
      <point x="1141" y="219"/>
      <point x="1094" y="219" type="qcurve"/>
      <point x="989" y="219"/>
      <point x="967" y="229" type="qcurve"/>
      <point x="956" y="233"/>
      <point x="956" y="252" type="qcurve"/>
      <point x="956" y="266"/>
      <point x="975" y="362" type="qcurve"/>
      <point x="1006" y="467"/>
      <point x="1053" y="680" type="qcurve"/>
      <point x="969" y="592"/>
      <point x="795" y="367" type="qcurve"/>
      <point x="762" y="319"/>
      <point x="721" y="319" type="qcurve"/>
      <point x="653" y="319"/>
      <point x="633" y="332" type="qcurve"/>
      <point x="604" y="348"/>
      <point x="604" y="410" type="qcurve"/>
      <point x="604" y="434"/>
      <point x="600" y="598" type="qcurve"/>
      <point x="596" y="741" type="line"/>
      <point x="555" y="602"/>
      <point x="469" y="326" type="qcurve"/>
      <point x="442" y="246"/>
      <point x="420" y="223"/>
      <point x="403" y="223" type="qcurve"/>
      <point x="281" y="223"/>
      <point x="281" y="254" type="qcurve"/>
      <point x="281" y="303"/>
      <point x="506" y="895"/>
      <point x="530" y="907" type="qcurve"/>
      <point x="543" y="915"/>
      <point x="575" y="915" type="qcurve"/>
      <point x="592" y="915"/>
      <point x="623" y="911" type="qcurve"/>
      <point x="696" y="901"/>
      <point x="723" y="870"/>
      <point x="729" y="795" type="qcurve"/>
      <point x="731" y="782"/>
      <point x="741" y="727"/>
      <point x="741" y="709" type="qcurve"/>
      <point x="739" y="616" type="line"/>
      <point x="743" y="592"/>
      <point x="733" y="489" type="qcurve"/>
      <point x="819" y="631"/>
      <point x="1047" y="883" type="qcurve"/>
      <point x="1073" y="911"/>
      <point x="1098" y="911" type="qcurve"/>
      <point x="1229" y="911"/>
    </contour>
  </outline>
</glyph>
<glyph name="n" format="2">
  <advance width="997"/>
  <unicode hex="006E"/>
  <outline>
    <contour>
      <point x="997" y="868" type="qcurve"/>
      <point x="997" y="829"/>
      <point x="930" y="627" type="qcurve"/>
      <point x="874" y="455"/>
      <point x="844" y="379" type="qcurve"/>
      <point x="829" y="348"/>
      <point x="815" y="319" type="qcurve"/>
      <point x="801" y="283"/>
      <point x="801" y="256" type="qcurve"/>
      <point x="801" y="250"/>
      <point x="809" y="229" type="qcurve"/>
      <point x="803" y="225"/>
      <point x="786" y="225" type="qcurve"/>
      <point x="653" y="225"/>
      <point x="621" y="262" type="qcurve"/>
      <point x="571" y="494"/>
      <point x="510" y="776" type="qcurve"/>
      <point x="457" y="492"/>
      <point x="403" y="315" type="qcurve"/>
      <point x="397" y="293"/>
      <point x="381" y="250" type="qcurve"/>
      <point x="371" y="223"/>
      <point x="346" y="223" type="qcurve"/>
      <point x="213" y="223"/>
      <point x="213" y="262" type="qcurve"/>
      <point x="213" y="270"/>
      <point x="287" y="502" type="qcurve"/>
      <point x="358" y="723"/>
      <point x="373" y="764" type="qcurve"/>
      <point x="428" y="918"/>
      <point x="440" y="918" type="qcurve"/>
      <point x="537" y="918"/>
      <point x="598" y="883" type="qcurve"/>
      <point x="647" y="854"/>
      <point x="688" y="649" type="qcurve"/>
      <point x="711" y="520"/>
      <point x="731" y="391" type="qcurve"/>
      <point x="741" y="465"/>
      <point x="758" y="612" type="qcurve"/>
      <point x="762" y="678"/>
      <point x="793" y="762" type="qcurve"/>
      <point x="817" y="834"/>
      <point x="844" y="907" type="qcurve"/>
      <point x="852" y="913"/>
      <point x="868" y="913" type="qcurve"/>
      <point x="899" y="913"/>
      <point x="942" y="903" type="qcurve"/>
      <point x="997" y="887"/>
    </contour>
  </outline>
</glyph>
<glyph name="o" format="2">
  <advance width="989"/>
  <unicode hex="006F"/>
  <outline>
    <contour>
      <point x="942" y="741" type="qcurve"/>
      <point x="942" y="455"/>
      <point x="752" y="299" type="qcurve"/>
      <point x="645" y="213"/>
      <point x="539" y="213" type="qcurve"/>
      <point x="498" y="213"/>
      <point x="444" y="221" type="qcurve"/>
      <point x="369" y="231"/>
      <point x="317" y="309" type="qcurve"/>
      <point x="272" y="379"/>
      <point x="272" y="459" type="qcurve"/>
      <point x="272" y="594"/>
      <point x="418" y="842"/>
      <point x="539" y="893" type="qcurve"/>
      <point x="625" y="930"/>
      <point x="680" y="930" type="qcurve"/>
      <point x="700" y="930"/>
      <point x="700" y="920"/>
      <point x="748" y="883"/>
      <point x="743" y="846" type="qcurve"/>
      <point x="856" y="920"/>
      <point x="870" y="920" type="qcurve"/>
      <point x="942" y="920"/>
    </contour>
    <contour>
      <point x="754" y="760" type="qcurve"/>
      <point x="754" y="788"/>
      <point x="725" y="842" type="qcurve"/>
      <point x="705" y="782"/>
      <point x="664" y="780" type="qcurve"/>
      <point x="623" y="760" type="line"/>
      <point x="551" y="723"/>
      <point x="459" y="551"/>
      <point x="459" y="465" type="qcurve"/>
      <point x="459" y="367"/>
      <point x="551" y="367" type="qcurve"/>
      <point x="594" y="367"/>
      <point x="649" y="428" type="qcurve"/>
      <point x="696" y="481"/>
      <point x="713" y="530" type="qcurve"/>
      <point x="748" y="631"/>
      <point x="748" y="715" type="qcurve"/>
      <point x="748" y="723"/>
      <point x="754" y="752"/>
    </contour>
  </outline>
</glyph>
<glyph name="p" format="2">
  <advance width="895"/>
  <unicode hex="0070"/>
  <outline>
    <contour>
      <point x="889" y="713" type="qcurve"/>
      <point x="889" y="618"/>
      <point x="809" y="539" type="qcurve"/>
      <point x="737" y="465"/>
      <point x="641" y="438" type="qcurve"/>
      <point x="582" y="422"/>
      <point x="565" y="422" type="qcurve"/>
      <point x="545" y="422"/>
      <point x="530" y="483" type="qcurve"/>
      <point x="528" y="494"/>
      <point x="518" y="512" type="qcurve"/>
      <point x="510" y="524"/>
      <point x="510" y="545" type="qcurve"/>
      <point x="494" y="516"/>
      <point x="475" y="481" type="qcurve"/>
      <point x="479" y="487"/>
      <point x="479" y="487" type="qcurve"/>
      <point x="481" y="487"/>
      <point x="481" y="485" type="qcurve"/>
      <point x="481" y="471"/>
      <point x="408" y="238"/>
      <point x="387" y="219"/>
      <point x="360" y="219" type="qcurve"/>
      <point x="240" y="219"/>
      <point x="240" y="250" type="qcurve"/>
      <point x="240" y="266"/>
      <point x="322" y="516" type="qcurve"/>
      <point x="369" y="659"/>
      <point x="414" y="803" type="qcurve"/>
      <point x="326" y="713"/>
      <point x="281" y="713" type="qcurve"/>
      <point x="266" y="713"/>
      <point x="266" y="719" type="qcurve"/>
      <point x="266" y="764"/>
      <point x="285" y="811" type="qcurve"/>
      <point x="311" y="883"/>
      <point x="393" y="905" type="qcurve"/>
      <point x="440" y="918"/>
      <point x="547" y="918" type="qcurve"/>
      <point x="618" y="918"/>
      <point x="688" y="907" type="qcurve"/>
      <point x="766" y="897"/>
      <point x="825" y="846" type="qcurve"/>
      <point x="889" y="788"/>
    </contour>
    <contour>
      <point x="705" y="690" type="qcurve"/>
      <point x="705" y="745"/>
      <point x="655" y="762" type="qcurve"/>
      <point x="606" y="770"/>
      <point x="559" y="776" type="qcurve"/>
      <point x="551" y="778"/>
      <point x="502" y="791"/>
      <point x="489" y="791" type="qcurve"/>
      <point x="473" y="791"/>
      <point x="442" y="786" type="qcurve"/>
      <point x="465" y="770"/>
      <point x="512" y="743" type="qcurve"/>
      <point x="516" y="741"/>
      <point x="516" y="743" type="qcurve"/>
      <point x="516" y="739"/>
      <point x="553" y="694"/>
      <point x="553" y="680" type="qcurve"/>
      <point x="553" y="657"/>
      <point x="506" y="561" type="qcurve"/>
      <point x="705" y="584"/>
    </contour>
  </outline>
</glyph>
<glyph name="q" format="2">
  <advance width="1001"/>
  <unicode hex="0071"/>
  <outline>
    <contour>
      <point x="958" y="698" type="qcurve"/>
      <point x="958" y="442"/>
      <point x="731" y="266" type="qcurve"/>
      <point x="803" y="201"/>
      <point x="803" y="186" type="qcurve"/>
      <point x="803" y="176"/>
      <point x="682" y="102"/>
      <point x="668" y="102" type="qcurve"/>
      <point x="659" y="102"/>
      <point x="567" y="186" type="qcurve"/>
      <point x="524" y="186"/>
      <point x="512" y="186" type="qcurve"/>
      <point x="408" y="186"/>
      <point x="276" y="319"/>
      <point x="276" y="424" type="qcurve"/>
      <point x="276" y="494"/>
      <point x="313" y="600" type="qcurve"/>
      <point x="358" y="727"/>
      <point x="571" y="895"/>
      <point x="705" y="895" type="qcurve"/>
      <point x="725" y="895"/>
      <point x="725" y="887" type="qcurve"/>
      <point x="725" y="858"/>
      <point x="682" y="803" type="qcurve"/>
      <point x="756" y="803" type="line"/>
      <point x="862" y="881"/>
      <point x="895" y="881" type="qcurve"/>
      <point x="958" y="881"/>
    </contour>
    <contour>
      <point x="760" y="694" type="qcurve"/>
      <point x="760" y="739"/>
      <point x="737" y="823" type="qcurve"/>
      <point x="713" y="797"/>
      <point x="678" y="745" type="qcurve"/>
      <point x="590" y="717"/>
      <point x="463" y="528"/>
      <point x="463" y="434" type="qcurve"/>
      <point x="463" y="383"/>
      <point x="487" y="358" type="qcurve"/>
      <point x="512" y="352"/>
      <point x="520" y="352" type="qcurve"/>
      <point x="547" y="352"/>
      <point x="592" y="401"/>
      <point x="594" y="401" type="qcurve"/>
      <point x="608" y="401"/>
      <point x="641" y="379" type="qcurve"/>
      <point x="760" y="516"/>
    </contour>
  </outline>
</glyph>
<glyph name="s" format="2">
  <advance width="756"/>
  <unicode hex="0073"/>
  <outline>
    <contour>
      <point x="803" y="887" type="qcurve"/>
      <point x="803" y="860"/>
      <point x="784" y="799" type="qcurve"/>
      <point x="770" y="752"/>
      <point x="741" y="743" type="qcurve"/>
      <point x="735" y="741"/>
      <point x="664" y="741" type="qcurve"/>
      <point x="641" y="741"/>
      <point x="621" y="743" type="qcurve"/>
      <point x="631" y="778" type="line"/>
      <point x="578" y="778" type="line"/>
      <point x="547" y="778"/>
      <point x="522" y="764" type="qcurve"/>
      <point x="492" y="745"/>
      <point x="492" y="717" type="qcurve"/>
      <point x="492" y="696"/>
      <point x="516" y="659"/>
      <point x="547" y="623" type="qcurve"/>
      <point x="635" y="510"/>
      <point x="635" y="436" type="qcurve"/>
      <point x="635" y="215"/>
      <point x="328" y="215" type="qcurve"/>
      <point x="248" y="215"/>
      <point x="195" y="223" type="qcurve"/>
      <point x="162" y="227"/>
      <point x="147" y="246"/>
      <point x="147" y="281" type="qcurve"/>
      <point x="147" y="299"/>
      <point x="178" y="406"/>
      <point x="197" y="428"/>
      <point x="225" y="428" type="qcurve"/>
      <point x="311" y="428"/>
      <point x="319" y="424" type="qcurve"/>
      <point x="317" y="406"/>
      <point x="305" y="365" type="qcurve"/>
      <point x="338" y="354"/>
      <point x="358" y="354" type="qcurve"/>
      <point x="457" y="354"/>
      <point x="457" y="418" type="qcurve"/>
      <point x="457" y="465"/>
      <point x="297" y="659"/>
      <point x="297" y="711" type="qcurve"/>
      <point x="297" y="782"/>
      <point x="387" y="844" type="qcurve"/>
      <point x="465" y="899"/>
      <point x="543" y="909" type="qcurve"/>
      <point x="612" y="920"/>
      <point x="717" y="920" type="qcurve"/>
      <point x="803" y="920"/>
    </contour>
  </outline>
</glyph>
<glyph name="t" format="2">
  <advance width="862"/>
  <unicode hex="0074"/>
  <outline>
    <contour>
      <point x="926" y="897" type="qcurve"/>
      <point x="926" y="887"/>
      <point x="909" y="842" type="qcurve"/>
      <point x="899" y="813"/>
      <point x="889" y="784" type="qcurve"/>
      <point x="881" y="774"/>
      <point x="829" y="774" type="qcurve"/>
      <point x="799" y="774"/>
      <point x="678" y="778"/>
      <point x="649" y="778" type="qcurve"/>
      <point x="545" y="778"/>
      <point x="553" y="778" type="qcurve"/>
      <point x="594" y="752"/>
      <point x="682" y="719" type="qcurve"/>
      <point x="711" y="707"/>
      <point x="711" y="694" type="qcurve"/>
      <point x="711" y="682"/>
      <point x="680" y="594" type="qcurve"/>
      <point x="643" y="479"/>
      <point x="565" y="254" type="qcurve"/>
      <point x="551" y="217"/>
      <point x="512" y="217" type="qcurve"/>
      <point x="481" y="217"/>
      <point x="434" y="225" type="qcurve"/>
      <point x="371" y="233"/>
      <point x="371" y="244" type="qcurve"/>
      <point x="371" y="270"/>
      <point x="391" y="322" type="qcurve"/>
      <point x="408" y="360"/>
      <point x="424" y="401" type="qcurve"/>
      <point x="459" y="502"/>
      <point x="535" y="702" type="qcurve"/>
      <point x="549" y="733"/>
      <point x="549" y="745" type="qcurve"/>
      <point x="549" y="782"/>
      <point x="508" y="782" type="qcurve"/>
      <point x="489" y="782"/>
      <point x="410" y="778"/>
      <point x="389" y="778" type="qcurve"/>
      <point x="330" y="778"/>
      <point x="330" y="801" type="qcurve"/>
      <point x="330" y="821"/>
      <point x="356" y="897"/>
      <point x="383" y="911"/>
      <point x="428" y="911" type="qcurve"/>
      <point x="553" y="911" type="line"/>
      <point x="608" y="911"/>
      <point x="874" y="905" type="qcurve"/>
      <point x="926" y="905"/>
    </contour>
  </outline>
</glyph>
<glyph name="u" format="2">
  <advance width="987"/>
  <unicode hex="0075"/>
  <outline>
    <contour>
      <point x="991" y="874" type="qcurve"/>
      <point x="991" y="842"/>
      <point x="961" y="752" type="qcurve"/>
      <point x="936" y="686"/>
      <point x="913" y="623" type="qcurve"/>
      <point x="834" y="385"/>
      <point x="752" y="279" type="qcurve"/>
      <point x="702" y="215"/>
      <point x="573" y="215" type="qcurve"/>
      <point x="461" y="215"/>
      <point x="383" y="256" type="qcurve"/>
      <point x="287" y="307"/>
      <point x="287" y="410" type="qcurve"/>
      <point x="287" y="455"/>
      <point x="332" y="600" type="qcurve"/>
      <point x="352" y="672"/>
      <point x="397" y="815" type="qcurve"/>
      <point x="406" y="846"/>
      <point x="426" y="903" type="qcurve"/>
      <point x="432" y="918"/>
      <point x="477" y="918" type="qcurve"/>
      <point x="610" y="918"/>
      <point x="610" y="893" type="qcurve"/>
      <point x="610" y="879"/>
      <point x="563" y="743" type="qcurve"/>
      <point x="504" y="567"/>
      <point x="475" y="432" type="qcurve"/>
      <point x="492" y="369"/>
      <point x="555" y="369" type="qcurve"/>
      <point x="569" y="369"/>
      <point x="586" y="371" type="qcurve"/>
      <point x="641" y="379"/>
      <point x="690" y="502" type="qcurve"/>
      <point x="717" y="590"/>
      <point x="745" y="676" type="qcurve"/>
      <point x="764" y="729"/>
      <point x="801" y="836" type="qcurve"/>
      <point x="807" y="854"/>
      <point x="821" y="887" type="qcurve"/>
      <point x="834" y="905"/>
      <point x="874" y="905" type="qcurve"/>
      <point x="991" y="905"/>
    </contour>
  </outline>
</glyph>
<glyph name="w" format="2">
  <advance width="1421"/>
  <unicode hex="0077"/>
  <outline>
    <contour>
      <point x="1450" y="874" type="qcurve"/>
      <point x="1450" y="831"/>
      <point x="1124" y="260"/>
      <point x="1081" y="229" type="qcurve"/>
      <point x="1067" y="217"/>
      <point x="1053" y="217" type="qcurve"/>
      <point x="946" y="217"/>
      <point x="926" y="248" type="qcurve"/>
      <point x="913" y="266"/>
      <point x="913" y="381" type="qcurve"/>
      <point x="913" y="416"/>
      <point x="913" y="520" type="qcurve"/>
      <point x="911" y="598"/>
      <point x="913" y="659" type="qcurve"/>
      <point x="879" y="592"/>
      <point x="813" y="479" type="qcurve"/>
      <point x="795" y="453"/>
      <point x="760" y="395" type="qcurve"/>
      <point x="735" y="352"/>
      <point x="713" y="309" type="qcurve"/>
      <point x="684" y="260"/>
      <point x="655" y="231" type="qcurve"/>
      <point x="645" y="221"/>
      <point x="631" y="221" type="qcurve"/>
      <point x="514" y="221"/>
      <point x="502" y="256" type="qcurve"/>
      <point x="496" y="272"/>
      <point x="496" y="451" type="qcurve"/>
      <point x="496" y="518"/>
      <point x="502" y="795"/>
      <point x="502" y="864" type="qcurve"/>
      <point x="502" y="915"/>
      <point x="539" y="915" type="qcurve"/>
      <point x="575" y="915"/>
      <point x="637" y="903" type="qcurve"/>
      <point x="678" y="895"/>
      <point x="678" y="864" type="qcurve"/>
      <point x="678" y="778"/>
      <point x="666" y="643" type="qcurve"/>
      <point x="647" y="446"/>
      <point x="645" y="424" type="qcurve"/>
      <point x="743" y="621"/>
      <point x="872" y="854" type="qcurve"/>
      <point x="893" y="874"/>
      <point x="918" y="874" type="qcurve"/>
      <point x="1020" y="874"/>
      <point x="1040" y="858" type="qcurve"/>
      <point x="1044" y="838"/>
      <point x="1044" y="776" type="qcurve"/>
      <point x="1044" y="539"/>
      <point x="1038" y="451" type="qcurve"/>
      <point x="1110" y="557"/>
      <point x="1204" y="739" type="qcurve"/>
      <point x="1243" y="819"/>
      <point x="1296" y="907" type="qcurve"/>
      <point x="1303" y="911"/>
      <point x="1313" y="911" type="qcurve"/>
      <point x="1450" y="911"/>
    </contour>
  </outline>
</glyph>
<glyph name="x" format="2">
  <advance width="893"/>
  <unicode hex="0078"/>
  <outline>
    <contour>
      <point x="887" y="881" type="qcurve"/>
      <point x="887" y="870"/>
      <point x="647" y="549" type="qcurve"/>
      <point x="682" y="455"/>
      <point x="754" y="328" type="qcurve"/>
      <point x="791" y="264"/>
      <point x="791" y="236" type="qcurve"/>
      <point x="791" y="215"/>
      <point x="729" y="215" type="qcurve"/>
      <point x="707" y="215" type="line"/>
      <point x="647" y="217"/>
      <point x="592" y="260"/>
      <point x="553" y="373"/>
      <point x="520" y="446" type="qcurve"/>
      <point x="442" y="217"/>
      <point x="360" y="217" type="qcurve"/>
      <point x="324" y="215" type="line"/>
      <point x="219" y="215"/>
      <point x="219" y="244" type="qcurve"/>
      <point x="219" y="250"/>
      <point x="326" y="391" type="qcurve"/>
      <point x="444" y="549"/>
      <point x="455" y="561" type="qcurve"/>
      <point x="430" y="627"/>
      <point x="381" y="727"/>
      <point x="356" y="780" type="qcurve"/>
      <point x="326" y="850"/>
      <point x="326" y="889" type="qcurve"/>
      <point x="326" y="911"/>
      <point x="375" y="911" type="qcurve"/>
      <point x="479" y="911"/>
      <point x="502" y="893" type="qcurve"/>
      <point x="514" y="885"/>
      <point x="565" y="686" type="qcurve"/>
      <point x="590" y="719"/>
      <point x="639" y="784" type="qcurve"/>
      <point x="653" y="813"/>
      <point x="688" y="866" type="qcurve"/>
      <point x="719" y="909"/>
      <point x="752" y="909" type="qcurve"/>
      <point x="887" y="909"/>
    </contour>
  </outline>
</glyph>
<glyph name="y" format="2">
  <advance width="879"/>
  <unicode hex="0079"/>
  <outline>
    <contour>
      <point x="907" y="881" type="qcurve"/>
      <point x="907" y="860"/>
      <point x="895" y="842" type="qcurve"/>
      <point x="580" y="354" type="line"/>
      <point x="555" y="311"/>
      <point x="500" y="233" type="qcurve"/>
      <point x="483" y="215"/>
      <point x="457" y="215" type="qcurve"/>
      <point x="317" y="215"/>
      <point x="317" y="252" type="qcurve"/>
      <point x="317" y="260"/>
      <point x="377" y="350" type="qcurve"/>
      <point x="397" y="385"/>
      <point x="440" y="455" type="qcurve"/>
      <point x="436" y="473"/>
      <point x="406" y="598" type="qcurve"/>
      <point x="393" y="651"/>
      <point x="369" y="756" type="qcurve"/>
      <point x="346" y="854"/>
      <point x="346" y="895" type="qcurve"/>
      <point x="346" y="918"/>
      <point x="362" y="918" type="qcurve"/>
      <point x="389" y="918"/>
      <point x="444" y="909" type="qcurve"/>
      <point x="510" y="899"/>
      <point x="514" y="889" type="qcurve"/>
      <point x="516" y="887"/>
      <point x="537" y="766"/>
      <point x="537" y="717" type="qcurve"/>
      <point x="537" y="649"/>
      <point x="524" y="541" type="qcurve"/>
      <point x="569" y="629"/>
      <point x="614" y="715" type="qcurve"/>
      <point x="670" y="817"/>
      <point x="719" y="881" type="qcurve"/>
      <point x="741" y="913"/>
      <point x="768" y="913" type="qcurve"/>
      <point x="907" y="913"/>
    </contour>
  </outline>
</glyph>
<glyph name="z" format="2">
  <advance width="805"/>
  <unicode hex="007A"/>
  <outline>
    <contour>
      <point x="807" y="782" type="qcurve"/>
      <point x="807" y="772"/>
      <point x="756" y="719" type="qcurve"/>
      <point x="657" y="618"/>
      <point x="561" y="516" type="qcurve"/>
      <point x="446" y="397"/>
      <point x="352" y="330" type="qcurve"/>
      <point x="457" y="334"/>
      <point x="668" y="342" type="qcurve"/>
      <point x="666" y="326"/>
      <point x="655" y="295" type="qcurve"/>
      <point x="649" y="272"/>
      <point x="629" y="238" type="qcurve"/>
      <point x="618" y="227"/>
      <point x="485" y="227" type="qcurve"/>
      <point x="391" y="227" type="line"/>
      <point x="244" y="227"/>
      <point x="219" y="244"/>
      <point x="180" y="319"/>
      <point x="180" y="336" type="qcurve"/>
      <point x="180" y="350"/>
      <point x="229" y="399" type="qcurve"/>
      <point x="256" y="424"/>
      <point x="356" y="524"/>
      <point x="455" y="625" type="qcurve"/>
      <point x="539" y="711"/>
      <point x="659" y="807" type="qcurve"/>
      <point x="518" y="795"/>
      <point x="451" y="795" type="qcurve"/>
      <point x="313" y="797" type="line"/>
      <point x="313" y="813"/>
      <point x="336" y="870" type="qcurve"/>
      <point x="340" y="887"/>
      <point x="354" y="915" type="qcurve"/>
      <point x="362" y="928"/>
      <point x="545" y="928" type="qcurve"/>
      <point x="639" y="928" type="line"/>
      <point x="719" y="928"/>
      <point x="731" y="924" type="qcurve"/>
      <point x="766" y="911"/>
      <point x="807" y="805"/>
    </contour>
  </outline>
</glyph>
<glyph name="braceleft" format="2">
  <advance width="995"/>
  <unicode hex="007B"/>
  <outline>
    <contour>
      <point x="868" y="1389" type="qcurve"/>
      <point x="723" y="1325"/>
      <point x="682" y="1251" type="qcurve"/>
      <point x="649" y="1188"/>
      <point x="649" y="1024" type="qcurve"/>
      <point x="649" y="850"/>
      <point x="530" y="745" type="qcurve"/>
      <point x="438" y="664"/>
      <point x="248" y="610" type="qcurve"/>
      <point x="492" y="537"/>
      <point x="492" y="379" type="qcurve"/>
      <point x="492" y="301"/>
      <point x="354" y="43"/>
      <point x="354" y="-10" type="qcurve"/>
      <point x="354" y="-98"/>
      <point x="471" y="-168" type="qcurve"/>
      <point x="387" y="-158"/>
      <point x="279" y="-20"/>
      <point x="279" y="66" type="qcurve"/>
      <point x="279" y="135"/>
      <point x="414" y="387"/>
      <point x="414" y="444" type="qcurve"/>
      <point x="414" y="561"/>
      <point x="221" y="610" type="qcurve"/>
      <point x="477" y="676"/>
      <point x="512" y="811" type="qcurve"/>
      <point x="524" y="858"/>
      <point x="520" y="1044"/>
      <point x="532" y="1090" type="qcurve"/>
      <point x="559" y="1192"/>
      <point x="766" y="1376"/>
    </contour>
  </outline>
</glyph>
<glyph name="asciitilde" format="2">
  <advance width="1128"/>
  <unicode hex="007E"/>
  <outline>
    <contour>
      <point x="1026" y="580" type="qcurve"/>
      <point x="1012" y="426" type="line"/>
      <point x="911" y="373"/>
      <point x="805" y="373" type="qcurve"/>
      <point x="731" y="373"/>
      <point x="467" y="475"/>
      <point x="399" y="475" type="qcurve"/>
      <point x="315" y="475"/>
      <point x="186" y="399" type="qcurve"/>
      <point x="203" y="549" type="line"/>
      <point x="291" y="602"/>
      <point x="403" y="602" type="qcurve"/>
      <point x="481" y="602"/>
      <point x="748" y="502"/>
      <point x="815" y="502" type="qcurve"/>
      <point x="899" y="502"/>
    </contour>
  </outline>
</glyph>
<glyph name="logicalnot" format="2">
  <advance width="1282"/>
  <unicode hex="00AC"/>
  <outline>
    <contour>
      <point x="1026" y="776" type="line"/>
      <point x="901" y="195" type="line"/>
      <point x="778" y="195" type="line"/>
      <point x="879" y="662" type="line"/>
      <point x="250" y="662" type="line"/>
      <point x="274" y="776" type="line"/>
    </contour>
  </outline>
</glyph>
<glyph name="registered" format="2">
  <advance width="1450"/>
  <unicode hex="00AE"/>
  <outline>
    <contour>
      <point x="1272" y="1198" type="qcurve"/>
      <point x="1272" y="1145"/>
      <point x="1260" y="1087" type="qcurve"/>
      <point x="1212" y="864"/>
      <point x="842" y="555"/>
      <point x="614" y="555" type="qcurve"/>
      <point x="426" y="555"/>
      <point x="182" y="784"/>
      <point x="182" y="973" type="qcurve"/>
      <point x="182" y="1260"/>
      <point x="430" y="1464" type="qcurve"/>
      <point x="618" y="1618"/>
      <point x="840" y="1618" type="qcurve"/>
      <point x="1026" y="1618"/>
      <point x="1272" y="1384"/>
    </contour>
    <contour>
      <point x="1229" y="1192" type="qcurve"/>
      <point x="1229" y="1364"/>
      <point x="1006" y="1577"/>
      <point x="831" y="1577" type="qcurve"/>
      <point x="627" y="1577"/>
      <point x="281" y="1290"/>
      <point x="238" y="1087" type="qcurve"/>
      <point x="227" y="1038"/>
      <point x="227" y="983" type="qcurve"/>
      <point x="227" y="811"/>
      <point x="449" y="598"/>
      <point x="623" y="598" type="qcurve"/>
      <point x="829" y="598"/>
      <point x="1171" y="883"/>
      <point x="1217" y="1087" type="qcurve"/>
      <point x="1229" y="1145"/>
    </contour>
    <contour>
      <point x="975" y="1282" type="qcurve"/>
      <point x="975" y="1270"/>
      <point x="971" y="1251" type="qcurve"/>
      <point x="946" y="1135"/>
      <point x="754" y="1090" type="qcurve"/>
      <point x="877" y="840" type="line"/>
      <point x="903" y="784"/>
      <point x="936" y="772" type="qcurve"/>
      <point x="834" y="772" type="line"/>
      <point x="672" y="1081" type="line"/>
      <point x="590" y="1081" type="line"/>
      <point x="537" y="829" type="line"/>
      <point x="528" y="786"/>
      <point x="575" y="772" type="qcurve"/>
      <point x="397" y="772" type="line"/>
      <point x="444" y="786"/>
      <point x="463" y="868" type="qcurve"/>
      <point x="559" y="1321" type="line"/>
      <point x="575" y="1397"/>
      <point x="526" y="1409" type="qcurve"/>
      <point x="791" y="1409" type="line"/>
      <point x="862" y="1409"/>
      <point x="913" y="1382" type="qcurve"/>
      <point x="975" y="1348"/>
    </contour>
    <contour>
      <point x="879" y="1276" type="qcurve"/>
      <point x="879" y="1374"/>
      <point x="733" y="1374" type="qcurve"/>
      <point x="692" y="1374"/>
      <point x="649" y="1360" type="qcurve"/>
      <point x="600" y="1120" type="line"/>
      <point x="729" y="1122"/>
      <point x="762" y="1130" type="qcurve"/>
      <point x="856" y="1153"/>
      <point x="874" y="1241" type="qcurve"/>
      <point x="879" y="1260"/>
    </contour>
  </outline>
</glyph>
<glyph name="quoteleft" format="2">
  <advance width="621"/>
  <unicode hex="2018"/>
  <outline>
    <contour>
      <point x="555" y="1341" type="qcurve"/>
      <point x="537" y="1284" type="line"/>
      <point x="334" y="1219"/>
      <point x="254" y="1061" type="qcurve"/>
      <point x="311" y="1024" type="line"/>
      <point x="350" y="1026"/>
      <point x="408" y="975"/>
      <point x="408" y="936" type="qcurve"/>
      <point x="408" y="866"/>
      <point x="287" y="750"/>
      <point x="217" y="750" type="qcurve"/>
      <point x="100" y="750"/>
      <point x="100" y="868" type="qcurve"/>
      <point x="100" y="1028"/>
      <point x="254" y="1169" type="qcurve"/>
      <point x="385" y="1290"/>
    </contour>
  </outline>
</glyph>
<glyph name="quotedblleft" format="2">
  <advance width="1122"/>
  <unicode hex="201C"/>
  <outline>
    <contour>
      <point x="1169" y="1260" type="qcurve"/>
      <point x="1151" y="1202" type="line"/>
      <point x="948" y="1137"/>
      <point x="868" y="979" type="qcurve"/>
      <point x="926" y="942" type="line"/>
      <point x="965" y="944"/>
      <point x="1022" y="893"/>
      <point x="1022" y="854" type="qcurve"/>
      <point x="1022" y="784"/>
      <point x="901" y="668"/>
      <point x="831" y="668" type="qcurve"/>
      <point x="715" y="668"/>
      <point x="715" y="786" type="qcurve"/>
      <point x="715" y="946"/>
      <point x="868" y="1087" type="qcurve"/>
      <point x="999" y="1208"/>
    </contour>
    <contour>
      <point x="670" y="1257" type="qcurve"/>
      <point x="651" y="1200" type="line"/>
      <point x="453" y="1135"/>
      <point x="377" y="975" type="qcurve"/>
      <point x="430" y="938" type="line"/>
      <point x="467" y="938"/>
      <point x="520" y="891"/>
      <point x="520" y="854" type="qcurve"/>
      <point x="520" y="782"/>
      <point x="408" y="666"/>
      <point x="336" y="666" type="qcurve"/>
      <point x="223" y="666"/>
      <point x="223" y="786" type="qcurve"/>
      <point x="223" y="944"/>
      <point x="373" y="1085" type="qcurve"/>
      <point x="502" y="1206"/>
    </contour>
  </outline>
</glyph>
<glyph name="bullet" format="2">
  <advance width="1491"/>
  <unicode hex="2022"/>
  <outline>
    <contour>
      <point x="1202" y="616" type="qcurve"/>
      <point x="1202" y="465"/>
      <point x="1006" y="348" type="qcurve"/>
      <point x="829" y="244"/>
      <point x="668" y="244" type="qcurve"/>
      <point x="545" y="244"/>
      <point x="438" y="297" type="qcurve"/>
      <point x="305" y="365"/>
      <point x="305" y="477" type="qcurve"/>
      <point x="305" y="502"/>
      <point x="317" y="537" type="qcurve"/>
      <point x="369" y="676"/>
      <point x="537" y="762" type="qcurve"/>
      <point x="686" y="840"/>
      <point x="848" y="840" type="qcurve"/>
      <point x="977" y="840"/>
      <point x="1075" y="793" type="qcurve"/>
      <point x="1202" y="731"/>
    </contour>
  </outline>
</glyph>
<glyph name="dblanglebracketleft" format="2">
  <advance width="1100"/>
  <unicode hex="300A"/>
  <outline>
    <contour>
      <point x="1005" y="29" type="line"/>
      <point x="810" y="666" type="line"/>
      <point x="1253" y="1303" type="line"/>
      <point x="1153" y="1356" type="line"/>
      <point x="672" y="666" type="line"/>
      <point x="885" y="-22" type="line"/>
    </contour>
    <contour>
      <point x="725" y="29" type="line"/>
      <point x="529" y="666" type="line"/>
      <point x="972" y="1303" type="line"/>
      <point x="872" y="1356" type="line"/>
      <point x="391" y="666" type="line"/>
      <point x="604" y="-22" type="line"/>
    </contour>
  </outline>
</glyph>
<glyph name="uniA4D1" format="2">
  <advance width="1114"/>
  <unicode hex="A4D1"/>
  <outline>
    <contour>
      <point x="1106" y="809" type="qcurve"/>
      <point x="1106" y="653"/>
      <point x="973" y="518" type="qcurve"/>
      <point x="852" y="397"/>
      <point x="690" y="350" type="qcurve"/>
      <point x="594" y="324"/>
      <point x="565" y="324" type="qcurve"/>
      <point x="530" y="324"/>
      <point x="508" y="428" type="qcurve"/>
      <point x="504" y="446"/>
      <point x="473" y="496"/>
      <point x="473" y="528" type="qcurve"/>
      <point x="444" y="481"/>
      <point x="416" y="426" type="qcurve"/>
      <point x="420" y="432"/>
      <point x="424" y="434" type="qcurve"/>
      <point x="426" y="434"/>
      <point x="424" y="428" type="qcurve"/>
      <point x="424" y="406"/>
      <point x="303" y="16"/>
      <point x="291" y="-4" type="qcurve"/>
      <point x="268" y="-14"/>
      <point x="225" y="-14" type="qcurve"/>
      <point x="23" y="-14"/>
      <point x="23" y="37" type="qcurve"/>
      <point x="23" y="68"/>
      <point x="158" y="481" type="qcurve"/>
      <point x="238" y="721"/>
      <point x="315" y="958" type="qcurve"/>
      <point x="227" y="872"/>
      <point x="215" y="862" type="qcurve"/>
      <point x="152" y="811"/>
      <point x="92" y="811" type="qcurve"/>
      <point x="70" y="811"/>
      <point x="70" y="819" type="qcurve"/>
      <point x="70" y="895"/>
      <point x="98" y="975" type="qcurve"/>
      <point x="141" y="1094"/>
      <point x="281" y="1130" type="qcurve"/>
      <point x="356" y="1151"/>
      <point x="535" y="1151" type="qcurve"/>
      <point x="655" y="1151"/>
      <point x="772" y="1135" type="qcurve"/>
      <point x="901" y="1118"/>
      <point x="999" y="1030" type="qcurve"/>
      <point x="1106" y="934"/>
    </contour>
    <contour>
      <point x="799" y="772" type="qcurve"/>
      <point x="799" y="864"/>
      <point x="715" y="891" type="qcurve"/>
      <point x="635" y="903"/>
      <point x="555" y="915" type="qcurve"/>
      <point x="541" y="918"/>
      <point x="496" y="928" type="qcurve"/>
      <point x="461" y="938"/>
      <point x="438" y="938" type="qcurve"/>
      <point x="412" y="938"/>
      <point x="360" y="934" type="qcurve"/>
      <point x="399" y="905"/>
      <point x="475" y="862" type="qcurve"/>
      <point x="479" y="860"/>
      <point x="483" y="862" type="qcurve"/>
      <point x="485" y="854"/>
      <point x="545" y="780"/>
      <point x="545" y="756" type="qcurve"/>
      <point x="545" y="717"/>
      <point x="469" y="555" type="qcurve"/>
      <point x="588" y="569"/>
      <point x="676" y="612" type="qcurve"/>
      <point x="799" y="674"/>
    </contour>
  </outline>
</glyph>
<glyph name="uniA4D2" format="2">
  <advance width="1128"/>
  <unicode hex="A4D2"/>
  <outline>
    <contour>
      <point x="1051" y="1057" type="qcurve"/>
      <point x="1051" y="1028"/>
      <point x="915" y="612" type="qcurve"/>
      <point x="838" y="375"/>
      <point x="758" y="137" type="qcurve"/>
      <point x="907" y="283"/>
      <point x="961" y="283" type="qcurve"/>
      <point x="1004" y="283"/>
      <point x="1004" y="254" type="qcurve"/>
      <point x="1004" y="199"/>
      <point x="975" y="121" type="qcurve"/>
      <point x="930" y="2"/>
      <point x="793" y="-35" type="qcurve"/>
      <point x="717" y="-55"/>
      <point x="539" y="-55" type="qcurve"/>
      <point x="420" y="-55"/>
      <point x="301" y="-41" type="qcurve"/>
      <point x="172" y="-23"/>
      <point x="74" y="63" type="qcurve"/>
      <point x="-33" y="160"/>
      <point x="-33" y="285" type="qcurve"/>
      <point x="-33" y="440"/>
      <point x="100" y="575" type="qcurve"/>
      <point x="221" y="696"/>
      <point x="383" y="743" type="qcurve"/>
      <point x="479" y="770"/>
      <point x="508" y="770" type="qcurve"/>
      <point x="524" y="770"/>
      <point x="539" y="668"/>
      <point x="610" y="571" type="qcurve"/>
      <point x="637" y="633"/>
      <point x="696" y="852" type="qcurve"/>
      <point x="752" y="1049"/>
      <point x="782" y="1098" type="qcurve"/>
      <point x="805" y="1110"/>
      <point x="848" y="1110" type="qcurve"/>
      <point x="1051" y="1110"/>
    </contour>
    <contour>
      <point x="764" y="236" type="qcurve"/>
      <point x="723" y="238"/>
      <point x="696" y="256" type="qcurve"/>
      <point x="664" y="276"/>
      <point x="651" y="279" type="qcurve"/>
      <point x="616" y="287"/>
      <point x="580" y="297" type="qcurve"/>
      <point x="528" y="313"/>
      <point x="528" y="338" type="qcurve"/>
      <point x="528" y="377"/>
      <point x="606" y="539" type="qcurve"/>
      <point x="485" y="524"/>
      <point x="397" y="481" type="qcurve"/>
      <point x="274" y="420"/>
      <point x="274" y="324" type="qcurve"/>
      <point x="274" y="180"/>
      <point x="518" y="180" type="qcurve"/>
      <point x="588" y="180"/>
      <point x="705" y="217"/>
    </contour>
  </outline>
</glyph>
<glyph name="uniA4D3" format="2">
  <advance width="1243"/>
  <unicode hex="A4D3"/>
  <outline>
    <contour>
      <point x="1159" y="694" type="qcurve"/>
      <point x="1159" y="487"/>
      <point x="999" y="309" type="qcurve"/>
      <point x="864" y="158"/>
      <point x="653" y="57" type="qcurve"/>
      <point x="469" y="-29"/>
      <point x="332" y="-29" type="qcurve"/>
      <point x="248" y="-29"/>
      <point x="176" y="14" type="qcurve"/>
      <point x="127" y="47"/>
      <point x="55" y="125" type="qcurve"/>
      <point x="23" y="160"/>
      <point x="23" y="174" type="qcurve"/>
      <point x="23" y="270"/>
      <point x="115" y="532" type="qcurve"/>
      <point x="182" y="717"/>
      <point x="252" y="901" type="qcurve"/>
      <point x="168" y="897"/>
      <point x="74" y="868" type="qcurve"/>
      <point x="82" y="920"/>
      <point x="117" y="997" type="qcurve"/>
      <point x="156" y="1090"/>
      <point x="186" y="1106" type="qcurve"/>
      <point x="209" y="1118"/>
      <point x="332" y="1137" type="qcurve"/>
      <point x="449" y="1153"/>
      <point x="489" y="1153" type="qcurve"/>
      <point x="588" y="1153"/>
      <point x="741" y="1135" type="qcurve"/>
      <point x="907" y="1116"/>
      <point x="1159" y="858"/>
    </contour>
    <contour>
      <point x="831" y="670" type="qcurve"/>
      <point x="831" y="805"/>
      <point x="707" y="881" type="qcurve"/>
      <point x="602" y="942"/>
      <point x="457" y="942" type="qcurve"/>
      <point x="424" y="942"/>
      <point x="311" y="934" type="qcurve"/>
      <point x="317" y="897" type="line"/>
      <point x="340" y="895"/>
      <point x="406" y="854"/>
      <point x="420" y="850" type="qcurve"/>
      <point x="518" y="819"/>
      <point x="518" y="766" type="qcurve"/>
      <point x="518" y="741"/>
      <point x="483" y="657" type="qcurve"/>
      <point x="420" y="498"/>
      <point x="346" y="229" type="qcurve"/>
      <point x="471" y="246"/>
      <point x="518" y="258" type="qcurve"/>
      <point x="616" y="287"/>
      <point x="668" y="340" type="qcurve"/>
      <point x="831" y="508"/>
    </contour>
  </outline>
</glyph>
<glyph name="uniA4D4" format="2">
  <advance width="1020"/>
  <unicode hex="A4D4"/>
  <outline>
    <contour>
      <point x="1124" y="1118" type="qcurve"/>
      <point x="1124" y="1100"/>
      <point x="1098" y="1026" type="qcurve"/>
      <point x="1079" y="979"/>
      <point x="1063" y="930" type="qcurve"/>
      <point x="1049" y="913"/>
      <point x="963" y="913" type="qcurve"/>
      <point x="913" y="913"/>
      <point x="713" y="920"/>
      <point x="664" y="920" type="qcurve"/>
      <point x="489" y="920"/>
      <point x="502" y="922" type="qcurve"/>
      <point x="571" y="874"/>
      <point x="717" y="819" type="qcurve"/>
      <point x="766" y="801"/>
      <point x="766" y="780" type="qcurve"/>
      <point x="766" y="745"/>
      <point x="748" y="696" type="qcurve"/>
      <point x="731" y="655"/>
      <point x="715" y="614" type="qcurve"/>
      <point x="653" y="424"/>
      <point x="522" y="45" type="qcurve"/>
      <point x="500" y="-14"/>
      <point x="432" y="-14" type="qcurve"/>
      <point x="385" y="-14"/>
      <point x="303" y="-2" type="qcurve"/>
      <point x="199" y="10"/>
      <point x="199" y="31" type="qcurve"/>
      <point x="199" y="76"/>
      <point x="233" y="160" type="qcurve"/>
      <point x="260" y="225"/>
      <point x="289" y="291" type="qcurve"/>
      <point x="346" y="461"/>
      <point x="473" y="795" type="qcurve"/>
      <point x="496" y="846"/>
      <point x="496" y="866" type="qcurve"/>
      <point x="496" y="926"/>
      <point x="428" y="926" type="qcurve"/>
      <point x="395" y="926"/>
      <point x="264" y="920"/>
      <point x="231" y="920" type="qcurve"/>
      <point x="131" y="920"/>
      <point x="131" y="961" type="qcurve"/>
      <point x="131" y="993"/>
      <point x="176" y="1118"/>
      <point x="219" y="1143"/>
      <point x="295" y="1143" type="qcurve"/>
      <point x="504" y="1143" type="line"/>
      <point x="596" y="1143"/>
      <point x="1040" y="1133" type="qcurve"/>
      <point x="1124" y="1130"/>
    </contour>
  </outline>
</glyph>
<glyph name="uniA4D5" format="2">
  <advance width="1049"/>
  <unicode hex="A4D5"/>
  <outline>
    <contour>
      <point x="893" y="178" type="qcurve"/>
      <point x="893" y="145"/>
      <point x="848" y="18"/>
      <point x="807" y="-6"/>
      <point x="729" y="-6" type="qcurve"/>
      <point x="520" y="-6" type="line"/>
      <point x="428" y="-6"/>
      <point x="-16" y="4" type="qcurve"/>
      <point x="-100" y="6"/>
      <point x="-100" y="18" type="qcurve"/>
      <point x="-100" y="35"/>
      <point x="-47" y="197"/>
      <point x="-27" y="223"/>
      <point x="61" y="223" type="qcurve"/>
      <point x="111" y="223"/>
      <point x="311" y="217"/>
      <point x="362" y="217" type="qcurve"/>
      <point x="369" y="217"/>
      <point x="608" y="225" type="qcurve"/>
      <point x="506" y="254"/>
      <point x="307" y="317" type="qcurve"/>
      <point x="258" y="336"/>
      <point x="258" y="356" type="qcurve"/>
      <point x="258" y="389"/>
      <point x="276" y="438" type="qcurve"/>
      <point x="348" y="657"/>
      <point x="502" y="1092" type="qcurve"/>
      <point x="524" y="1151"/>
      <point x="592" y="1151" type="qcurve"/>
      <point x="629" y="1151"/>
      <point x="711" y="1141" type="qcurve"/>
      <point x="805" y="1128"/>
      <point x="821" y="1118" type="qcurve"/>
      <point x="825" y="1114"/>
      <point x="825" y="1100" type="qcurve"/>
      <point x="825" y="1061"/>
      <point x="791" y="975" type="qcurve"/>
      <point x="764" y="909"/>
      <point x="735" y="846" type="qcurve"/>
      <point x="678" y="678"/>
      <point x="551" y="342" type="qcurve"/>
      <point x="530" y="291"/>
      <point x="530" y="270" type="qcurve"/>
      <point x="530" y="211"/>
      <point x="596" y="211" type="qcurve"/>
      <point x="629" y="211"/>
      <point x="760" y="217"/>
      <point x="793" y="217" type="qcurve"/>
      <point x="893" y="217"/>
    </contour>
  </outline>
</glyph>
<glyph name="uniA4D6" format="2">
  <advance width="1221"/>
  <unicode hex="A4D6"/>
  <outline>
    <contour>
      <point x="1157" y="575" type="qcurve"/>
      <point x="1157" y="565"/>
      <point x="1114" y="426"/>
      <point x="1073" y="408" type="qcurve"/>
      <point x="1044" y="393"/>
      <point x="967" y="393" type="qcurve"/>
      <point x="950" y="276"/>
      <point x="868" y="190" type="qcurve"/>
      <point x="793" y="113" type="line"/>
      <point x="668" y="-18"/>
      <point x="412" y="-18" type="qcurve"/>
      <point x="215" y="-18"/>
      <point x="119" y="117" type="qcurve"/>
      <point x="35" y="231"/>
      <point x="35" y="434" type="qcurve"/>
      <point x="35" y="537"/>
      <point x="111" y="702" type="qcurve"/>
      <point x="182" y="862"/>
      <point x="250" y="942" type="qcurve"/>
      <point x="334" y="1042"/>
      <point x="475" y="1102" type="qcurve"/>
      <point x="602" y="1155"/>
      <point x="688" y="1155" type="qcurve"/>
      <point x="848" y="1155"/>
      <point x="963" y="1112" type="qcurve"/>
      <point x="1126" y="1049"/>
      <point x="1126" y="911" type="qcurve"/>
      <point x="1126" y="844"/>
      <point x="1087" y="813"/>
      <point x="1016" y="801" type="qcurve"/>
      <point x="879" y="780"/>
      <point x="813" y="780" type="qcurve"/>
      <point x="788" y="780"/>
      <point x="788" y="795" type="qcurve"/>
      <point x="788" y="805"/>
      <point x="795" y="848"/>
      <point x="795" y="860" type="qcurve"/>
      <point x="795" y="938"/>
      <point x="686" y="938" type="qcurve"/>
      <point x="526" y="938"/>
      <point x="414" y="731" type="qcurve"/>
      <point x="315" y="553"/>
      <point x="315" y="375" type="qcurve"/>
      <point x="315" y="311"/>
      <point x="393" y="209"/>
      <point x="453" y="209" type="qcurve"/>
      <point x="530" y="209"/>
      <point x="625" y="303"/>
      <point x="625" y="377" type="qcurve"/>
      <point x="547" y="358"/>
      <point x="487" y="358" type="qcurve"/>
      <point x="457" y="358"/>
      <point x="457" y="377" type="qcurve"/>
      <point x="457" y="389"/>
      <point x="498" y="530"/>
      <point x="504" y="541" type="qcurve"/>
      <point x="522" y="567"/>
      <point x="731" y="584" type="qcurve"/>
      <point x="881" y="596"/>
      <point x="987" y="596" type="qcurve"/>
      <point x="1157" y="596"/>
    </contour>
  </outline>
</glyph>
<glyph name="uniA4D8" format="2">
  <advance width="1282"/>
  <unicode hex="A4D8"/>
  <outline>
    <contour>
      <point x="1257" y="1067" type="qcurve"/>
      <point x="1257" y="1022"/>
      <point x="1180" y="811" type="qcurve"/>
      <point x="1128" y="674"/>
      <point x="1075" y="535" type="qcurve"/>
      <point x="1063" y="502"/>
      <point x="987" y="258" type="qcurve"/>
      <point x="934" y="88"/>
      <point x="885" y="-14" type="qcurve"/>
      <point x="872" y="-41"/>
      <point x="819" y="-41" type="qcurve"/>
      <point x="590" y="-41"/>
      <point x="590" y="12" type="qcurve"/>
      <point x="590" y="61"/>
      <point x="750" y="410" type="qcurve"/>
      <point x="668" y="426"/>
      <point x="664" y="426" type="qcurve"/>
      <point x="614" y="426"/>
      <point x="543" y="379" type="qcurve"/>
      <point x="313" y="231"/>
      <point x="219" y="39" type="qcurve"/>
      <point x="211" y="18"/>
      <point x="203" y="0" type="qcurve"/>
      <point x="190" y="-25"/>
      <point x="172" y="-25" type="qcurve"/>
      <point x="117" y="-25"/>
      <point x="37" y="-6" type="qcurve"/>
      <point x="-68" y="16"/>
      <point x="-68" y="49" type="qcurve"/>
      <point x="-68" y="82"/>
      <point x="2" y="186" type="qcurve"/>
      <point x="240" y="543"/>
      <point x="592" y="618" type="qcurve"/>
      <point x="575" y="653"/>
      <point x="483" y="774" type="qcurve"/>
      <point x="356" y="938"/>
      <point x="240" y="1135" type="qcurve"/>
      <point x="242" y="1149"/>
      <point x="289" y="1169" type="qcurve"/>
      <point x="350" y="1198"/>
      <point x="352" y="1200" type="qcurve"/>
      <point x="369" y="1202"/>
      <point x="416" y="1221" type="qcurve"/>
      <point x="457" y="1237"/>
      <point x="479" y="1237" type="qcurve"/>
      <point x="508" y="1237"/>
      <point x="729" y="885" type="qcurve"/>
      <point x="784" y="799"/>
      <point x="883" y="682" type="qcurve"/>
      <point x="883" y="817"/>
      <point x="907" y="909" type="qcurve"/>
      <point x="920" y="958"/>
      <point x="981" y="1122" type="qcurve"/>
      <point x="989" y="1122" type="line"/>
      <point x="1049" y="1126"/>
      <point x="1137" y="1114" type="qcurve"/>
      <point x="1257" y="1098"/>
    </contour>
  </outline>
</glyph>
<glyph name="uniA4D9" format="2">
  <advance width="997"/>
  <unicode hex="A4D9"/>
  <outline>
    <contour>
      <point x="1010" y="1081" type="qcurve"/>
      <point x="1010" y="1038"/>
      <point x="938" y="840" type="qcurve"/>
      <point x="889" y="711"/>
      <point x="842" y="580" type="qcurve"/>
      <point x="811" y="479"/>
      <point x="780" y="381" type="qcurve"/>
      <point x="741" y="262"/>
      <point x="698" y="188" type="qcurve"/>
      <point x="627" y="72"/>
      <point x="539" y="29" type="qcurve"/>
      <point x="461" y="-6"/>
      <point x="315" y="-6" type="qcurve"/>
      <point x="207" y="-6"/>
      <point x="72" y="35" type="qcurve"/>
      <point x="-49" y="74"/>
      <point x="-49" y="223" type="qcurve"/>
      <point x="-49" y="276"/>
      <point x="-29" y="369" type="qcurve"/>
      <point x="-6" y="477"/>
      <point x="23" y="496" type="qcurve"/>
      <point x="41" y="506"/>
      <point x="156" y="506" type="qcurve"/>
      <point x="254" y="506"/>
      <point x="254" y="479" type="qcurve"/>
      <point x="254" y="449"/>
      <point x="203" y="319"/>
      <point x="203" y="283" type="qcurve"/>
      <point x="203" y="203"/>
      <point x="313" y="203" type="qcurve"/>
      <point x="403" y="203"/>
      <point x="451" y="301" type="qcurve"/>
      <point x="463" y="322"/>
      <point x="494" y="422" type="qcurve"/>
      <point x="557" y="598"/>
      <point x="676" y="954" type="qcurve"/>
      <point x="694" y="1016"/>
      <point x="713" y="1079" type="qcurve"/>
      <point x="745" y="1149"/>
      <point x="811" y="1149" type="qcurve"/>
      <point x="1010" y="1149"/>
    </contour>
  </outline>
</glyph>
<glyph name="uniA4DA" format="2">
  <advance width="1040"/>
  <unicode hex="A4DA"/>
  <outline>
    <contour>
      <point x="1030" y="956" type="qcurve"/>
      <point x="1030" y="840"/>
      <point x="977" y="797" type="qcurve"/>
      <point x="932" y="762"/>
      <point x="807" y="762" type="qcurve"/>
      <point x="750" y="762"/>
      <point x="737" y="780" type="qcurve"/>
      <point x="758" y="838"/>
      <point x="758" y="870" type="qcurve"/>
      <point x="758" y="938"/>
      <point x="666" y="938" type="qcurve"/>
      <point x="594" y="938"/>
      <point x="500" y="807" type="qcurve"/>
      <point x="424" y="700"/>
      <point x="391" y="606" type="qcurve"/>
      <point x="340" y="463"/>
      <point x="340" y="344" type="qcurve"/>
      <point x="340" y="246"/>
      <point x="453" y="246" type="qcurve"/>
      <point x="530" y="246"/>
      <point x="637" y="430"/>
      <point x="694" y="430" type="qcurve"/>
      <point x="756" y="430"/>
      <point x="827" y="424" type="qcurve"/>
      <point x="844" y="422"/>
      <point x="879" y="416"/>
      <point x="879" y="395" type="qcurve"/>
      <point x="879" y="369"/>
      <point x="854" y="311" type="qcurve"/>
      <point x="793" y="168"/>
      <point x="743" y="117" type="qcurve"/>
      <point x="684" y="55"/>
      <point x="545" y="10" type="qcurve"/>
      <point x="444" y="-20"/>
      <point x="360" y="-20" type="qcurve"/>
      <point x="190" y="-20"/>
      <point x="106" y="113" type="qcurve"/>
      <point x="35" y="223"/>
      <point x="35" y="403" type="qcurve"/>
      <point x="35" y="487"/>
      <point x="80" y="623" type="qcurve"/>
      <point x="152" y="829"/>
      <point x="336" y="1020" type="qcurve"/>
      <point x="473" y="1159"/>
      <point x="731" y="1159" type="qcurve"/>
      <point x="1030" y="1159"/>
    </contour>
  </outline>
</glyph>
<glyph name="uniA4DB" format="2">
  <advance width="1055"/>
  <unicode hex="A4DB"/>
  <outline>
    <contour>
      <point x="999" y="752" type="qcurve"/>
      <point x="999" y="668"/>
      <point x="954" y="535" type="qcurve"/>
      <point x="883" y="326"/>
      <point x="698" y="137" type="qcurve"/>
      <point x="561" y="-4"/>
      <point x="303" y="-4" type="qcurve"/>
      <point x="4" y="-4"/>
      <point x="4" y="201" type="qcurve"/>
      <point x="4" y="317"/>
      <point x="57" y="358" type="qcurve"/>
      <point x="104" y="395"/>
      <point x="227" y="395" type="qcurve"/>
      <point x="285" y="395"/>
      <point x="299" y="377" type="qcurve"/>
      <point x="279" y="319"/>
      <point x="279" y="287" type="qcurve"/>
      <point x="279" y="219"/>
      <point x="371" y="219" type="qcurve"/>
      <point x="440" y="219"/>
      <point x="535" y="350" type="qcurve"/>
      <point x="612" y="457"/>
      <point x="643" y="549" type="qcurve"/>
      <point x="694" y="692"/>
      <point x="694" y="811" type="qcurve"/>
      <point x="694" y="911"/>
      <point x="582" y="911" type="qcurve"/>
      <point x="504" y="911"/>
      <point x="397" y="727"/>
      <point x="340" y="727" type="qcurve"/>
      <point x="279" y="727"/>
      <point x="207" y="733" type="qcurve"/>
      <point x="190" y="735"/>
      <point x="156" y="741"/>
      <point x="156" y="762" type="qcurve"/>
      <point x="156" y="788"/>
      <point x="180" y="846" type="qcurve"/>
      <point x="270" y="1057"/>
      <point x="381" y="1106" type="qcurve"/>
      <point x="541" y="1178"/>
      <point x="674" y="1178" type="qcurve"/>
      <point x="844" y="1178"/>
      <point x="928" y="1044" type="qcurve"/>
      <point x="999" y="934"/>
    </contour>
  </outline>
</glyph>
<glyph name="uniA4E0" format="2">
  <advance width="1260"/>
  <unicode hex="A4E0"/>
  <outline>
    <contour>
      <point x="1257" y="1067" type="qcurve"/>
      <point x="1257" y="999"/>
      <point x="1147" y="666" type="qcurve"/>
      <point x="1053" y="377"/>
      <point x="1001" y="250" type="qcurve"/>
      <point x="979" y="201"/>
      <point x="956" y="152" type="qcurve"/>
      <point x="930" y="90"/>
      <point x="930" y="45" type="qcurve"/>
      <point x="930" y="37"/>
      <point x="944" y="0" type="qcurve"/>
      <point x="934" y="-6"/>
      <point x="905" y="-6" type="qcurve"/>
      <point x="684" y="-6"/>
      <point x="631" y="55" type="qcurve"/>
      <point x="625" y="66"/>
      <point x="541" y="459" type="qcurve"/>
      <point x="494" y="686"/>
      <point x="444" y="913" type="qcurve"/>
      <point x="358" y="438"/>
      <point x="268" y="145" type="qcurve"/>
      <point x="258" y="109"/>
      <point x="231" y="35" type="qcurve"/>
      <point x="213" y="-8"/>
      <point x="174" y="-8" type="qcurve"/>
      <point x="-47" y="-8"/>
      <point x="-47" y="57" type="qcurve"/>
      <point x="-47" y="70"/>
      <point x="76" y="455" type="qcurve"/>
      <point x="195" y="823"/>
      <point x="219" y="893" type="qcurve"/>
      <point x="309" y="1151"/>
      <point x="332" y="1151" type="qcurve"/>
      <point x="379" y="1151"/>
      <point x="557" y="1110"/>
      <point x="594" y="1090" type="qcurve"/>
      <point x="674" y="1042"/>
      <point x="743" y="702" type="qcurve"/>
      <point x="780" y="487"/>
      <point x="817" y="270" type="qcurve"/>
      <point x="831" y="395"/>
      <point x="858" y="641" type="qcurve"/>
      <point x="868" y="748"/>
      <point x="915" y="889" type="qcurve"/>
      <point x="961" y="1010"/>
      <point x="1004" y="1130" type="qcurve"/>
      <point x="1016" y="1143"/>
      <point x="1044" y="1143" type="qcurve"/>
      <point x="1094" y="1143"/>
      <point x="1167" y="1124" type="qcurve"/>
      <point x="1257" y="1100"/>
    </contour>
  </outline>
</glyph>
<glyph name="uniA4E1" format="2">
  <advance width="942"/>
  <unicode hex="A4E1"/>
  <outline>
    <contour>
      <point x="795" y="227" type="qcurve"/>
      <point x="795" y="215"/>
      <point x="760" y="119" type="qcurve"/>
      <point x="731" y="37"/>
      <point x="723" y="27" type="qcurve"/>
      <point x="698" y="-8"/>
      <point x="635" y="-8" type="qcurve"/>
      <point x="510" y="-8" type="line"/>
      <point x="285" y="-8"/>
      <point x="197" y="-2" type="qcurve"/>
      <point x="137" y="4"/>
      <point x="-2" y="113"/>
      <point x="-2" y="172" type="qcurve"/>
      <point x="-2" y="254"/>
      <point x="39" y="373" type="qcurve"/>
      <point x="66" y="440"/>
      <point x="117" y="575" type="qcurve"/>
      <point x="184" y="770"/>
      <point x="338" y="1149" type="qcurve"/>
      <point x="354" y="1159"/>
      <point x="395" y="1159" type="qcurve"/>
      <point x="453" y="1159"/>
      <point x="528" y="1149" type="qcurve"/>
      <point x="637" y="1133"/>
      <point x="637" y="1106" type="qcurve"/>
      <point x="637" y="1073"/>
      <point x="598" y="977" type="qcurve"/>
      <point x="481" y="690"/>
      <point x="330" y="238" type="qcurve"/>
      <point x="426" y="233"/>
      <point x="770" y="233" type="qcurve"/>
      <point x="795" y="233"/>
    </contour>
  </outline>
</glyph>
<glyph name="uniA4E4" format="2">
  <advance width="1200"/>
  <unicode hex="A4E4"/>
  <outline>
    <contour>
      <point x="1153" y="1081" type="qcurve"/>
      <point x="1153" y="1042"/>
      <point x="1124" y="963" type="qcurve"/>
      <point x="1102" y="901"/>
      <point x="1079" y="842" type="qcurve"/>
      <point x="866" y="223" type="line"/>
      <point x="938" y="240"/>
      <point x="1077" y="258" type="qcurve"/>
      <point x="1077" y="250" type="line"/>
      <point x="1077" y="215"/>
      <point x="1022" y="59"/>
      <point x="973" y="16"/>
      <point x="793" y="-8" type="qcurve"/>
      <point x="635" y="-31"/>
      <point x="565" y="-31" type="qcurve"/>
      <point x="389" y="-31"/>
      <point x="297" y="0" type="qcurve"/>
      <point x="23" y="90"/>
      <point x="23" y="297" type="qcurve"/>
      <point x="23" y="455"/>
      <point x="158" y="571" type="qcurve"/>
      <point x="236" y="637"/>
      <point x="432" y="731" type="qcurve"/>
      <point x="375" y="795"/>
      <point x="266" y="938" type="qcurve"/>
      <point x="137" y="1112"/>
      <point x="137" y="1143" type="qcurve"/>
      <point x="137" y="1163"/>
      <point x="328" y="1243"/>
      <point x="356" y="1243" type="qcurve"/>
      <point x="358" y="1243"/>
      <point x="362" y="1241" type="qcurve"/>
      <point x="401" y="1208"/>
      <point x="555" y="989" type="qcurve"/>
      <point x="676" y="815"/>
      <point x="739" y="717" type="qcurve"/>
      <point x="874" y="1126" type="line"/>
      <point x="907" y="1130"/>
      <point x="997" y="1130" type="qcurve"/>
      <point x="1153" y="1130"/>
    </contour>
    <contour>
      <point x="860" y="256" type="qcurve"/>
      <point x="821" y="266"/>
      <point x="743" y="283" type="qcurve"/>
      <point x="621" y="299"/>
      <point x="621" y="340" type="qcurve"/>
      <point x="621" y="365"/>
      <point x="674" y="485"/>
      <point x="674" y="522" type="qcurve"/>
      <point x="672" y="559" type="line"/>
      <point x="553" y="559"/>
      <point x="446" y="510" type="qcurve"/>
      <point x="317" y="446"/>
      <point x="317" y="340" type="qcurve"/>
      <point x="317" y="258"/>
      <point x="408" y="215" type="qcurve"/>
      <point x="481" y="178"/>
      <point x="571" y="178" type="qcurve"/>
      <point x="670" y="178"/>
      <point x="725" y="199" type="qcurve"/>
      <point x="793" y="227"/>
    </contour>
  </outline>
</glyph>
<glyph name="uniA4E6" format="2">
  <advance width="1104"/>
  <unicode hex="A4E6"/>
  <outline>
    <contour>
      <point x="1167" y="1085" type="qcurve"/>
      <point x="1167" y="979"/>
      <point x="506" y="-20"/>
      <point x="434" y="-20" type="qcurve"/>
      <point x="403" y="-20"/>
      <point x="309" y="4" type="qcurve"/>
      <point x="209" y="31"/>
      <point x="203" y="47" type="qcurve"/>
      <point x="201" y="82"/>
      <point x="197" y="145" type="qcurve"/>
      <point x="176" y="375"/>
      <point x="176" y="657" type="qcurve"/>
      <point x="176" y="1106"/>
      <point x="193" y="1143"/>
      <point x="217" y="1143" type="qcurve"/>
      <point x="272" y="1143"/>
      <point x="354" y="1133" type="qcurve"/>
      <point x="459" y="1118"/>
      <point x="483" y="1077"/>
      <point x="483" y="1012" type="qcurve"/>
      <point x="483" y="979"/>
      <point x="477" y="930" type="qcurve"/>
      <point x="467" y="866"/>
      <point x="467" y="848" type="qcurve"/>
      <point x="459" y="752"/>
      <point x="459" y="594" type="qcurve"/>
      <point x="459" y="578"/>
      <point x="444" y="512"/>
      <point x="444" y="496" type="qcurve"/>
      <point x="444" y="485"/>
      <point x="455" y="289" type="qcurve"/>
      <point x="514" y="416"/>
      <point x="778" y="901"/>
      <point x="836" y="1022" type="qcurve"/>
      <point x="852" y="1059"/>
      <point x="895" y="1141"/>
      <point x="936" y="1141" type="qcurve"/>
      <point x="977" y="1141"/>
      <point x="1063" y="1124" type="qcurve"/>
      <point x="1167" y="1106"/>
    </contour>
  </outline>
</glyph>
<glyph name="uniA4E7" format="2">
  <advance width="1264"/>
  <unicode hex="A4E7"/>
  <outline>
    <contour>
      <point x="1284" y="1053" type="qcurve"/>
      <point x="1284" y="1014"/>
      <point x="942" y="53"/>
      <point x="911" y="6" type="qcurve"/>
      <point x="899" y="-14"/>
      <point x="807" y="-14" type="qcurve"/>
      <point x="623" y="-14"/>
      <point x="623" y="31" type="qcurve"/>
      <point x="623" y="66"/>
      <point x="743" y="367" type="qcurve"/>
      <point x="840" y="614"/>
      <point x="889" y="723" type="qcurve"/>
      <point x="823" y="659"/>
      <point x="760" y="596" type="qcurve"/>
      <point x="684" y="518"/>
      <point x="641" y="459" type="qcurve"/>
      <point x="631" y="442"/>
      <point x="614" y="422" type="qcurve"/>
      <point x="604" y="418"/>
      <point x="391" y="410" type="qcurve"/>
      <point x="344" y="250"/>
      <point x="274" y="45" type="qcurve"/>
      <point x="246" y="-12"/>
      <point x="201" y="-12" type="qcurve"/>
      <point x="172" y="-12"/>
      <point x="16" y="12"/>
      <point x="-20" y="31"/>
      <point x="-20" y="51" type="qcurve"/>
      <point x="-20" y="72"/>
      <point x="29" y="219" type="qcurve"/>
      <point x="61" y="311"/>
      <point x="92" y="406" type="qcurve"/>
      <point x="0" y="414"/>
      <point x="0" y="446" type="qcurve"/>
      <point x="0" y="487"/>
      <point x="43" y="590" type="qcurve"/>
      <point x="68" y="647"/>
      <point x="98" y="662" type="qcurve"/>
      <point x="115" y="668"/>
      <point x="195" y="680" type="qcurve"/>
      <point x="215" y="752"/>
      <point x="264" y="887" type="qcurve"/>
      <point x="317" y="1034"/>
      <point x="381" y="1143"/>
      <point x="420" y="1143" type="qcurve"/>
      <point x="643" y="1143"/>
      <point x="643" y="1071" type="qcurve"/>
      <point x="643" y="1034"/>
      <point x="616" y="977" type="qcurve"/>
      <point x="571" y="877"/>
      <point x="485" y="664" type="qcurve"/>
      <point x="600" y="659"/>
      <point x="838" y="653" type="qcurve"/>
      <point x="877" y="760"/>
      <point x="954" y="977" type="qcurve"/>
      <point x="963" y="1014"/>
      <point x="991" y="1085" type="qcurve"/>
      <point x="1016" y="1137"/>
      <point x="1049" y="1137" type="qcurve"/>
      <point x="1073" y="1137"/>
      <point x="1219" y="1112"/>
      <point x="1239" y="1104" type="qcurve"/>
      <point x="1284" y="1087"/>
    </contour>
  </outline>
</glyph>
<glyph name="uniA4E9" format="2">
  <advance width="1069"/>
  <unicode hex="A4E9"/>
  <outline>
    <contour>
      <point x="1022" y="918" type="qcurve"/>
      <point x="1022" y="864"/>
      <point x="1001" y="772" type="qcurve"/>
      <point x="979" y="662"/>
      <point x="950" y="645" type="qcurve"/>
      <point x="932" y="633"/>
      <point x="817" y="633" type="qcurve"/>
      <point x="700" y="633"/>
      <point x="700" y="659" type="qcurve"/>
      <point x="700" y="692"/>
      <point x="750" y="821"/>
      <point x="750" y="858" type="qcurve"/>
      <point x="750" y="938"/>
      <point x="659" y="938" type="qcurve"/>
      <point x="569" y="938"/>
      <point x="522" y="840" type="qcurve"/>
      <point x="512" y="819"/>
      <point x="479" y="717" type="qcurve"/>
      <point x="416" y="541"/>
      <point x="297" y="186" type="qcurve"/>
      <point x="279" y="123"/>
      <point x="260" y="61" type="qcurve"/>
      <point x="227" y="-8"/>
      <point x="162" y="-8" type="qcurve"/>
      <point x="-57" y="-8"/>
      <point x="-57" y="57" type="qcurve"/>
      <point x="-57" y="102"/>
      <point x="14" y="301" type="qcurve"/>
      <point x="63" y="430"/>
      <point x="111" y="561" type="qcurve"/>
      <point x="141" y="662"/>
      <point x="172" y="760" type="qcurve"/>
      <point x="211" y="877"/>
      <point x="254" y="950" type="qcurve"/>
      <point x="326" y="1071"/>
      <point x="430" y="1114" type="qcurve"/>
      <point x="514" y="1147"/>
      <point x="670" y="1147" type="qcurve"/>
      <point x="766" y="1147"/>
      <point x="901" y="1104" type="qcurve"/>
      <point x="1022" y="1067"/>
    </contour>
  </outline>
</glyph>
<glyph name="uniA4EA" format="2">
  <advance width="1720"/>
  <unicode hex="A4EA"/>
  <outline>
    <contour>
      <point x="1769" y="1081" type="qcurve"/>
      <point x="1769" y="1008"/>
      <point x="1225" y="57"/>
      <point x="1155" y="4" type="qcurve"/>
      <point x="1128" y="-14"/>
      <point x="1106" y="-14" type="qcurve"/>
      <point x="928" y="-14"/>
      <point x="895" y="37" type="qcurve"/>
      <point x="874" y="68"/>
      <point x="874" y="256" type="qcurve"/>
      <point x="874" y="317"/>
      <point x="872" y="487" type="qcurve"/>
      <point x="870" y="621"/>
      <point x="872" y="721" type="qcurve"/>
      <point x="815" y="608"/>
      <point x="707" y="422" type="qcurve"/>
      <point x="676" y="375"/>
      <point x="616" y="281" type="qcurve"/>
      <point x="578" y="209"/>
      <point x="539" y="137" type="qcurve"/>
      <point x="492" y="53"/>
      <point x="444" y="8" type="qcurve"/>
      <point x="428" y="-10"/>
      <point x="401" y="-10" type="qcurve"/>
      <point x="209" y="-10"/>
      <point x="186" y="49" type="qcurve"/>
      <point x="176" y="78"/>
      <point x="176" y="373" type="qcurve"/>
      <point x="176" y="487"/>
      <point x="186" y="946"/>
      <point x="186" y="1063" type="qcurve"/>
      <point x="186" y="1149"/>
      <point x="248" y="1149" type="qcurve"/>
      <point x="309" y="1149"/>
      <point x="414" y="1126" type="qcurve"/>
      <point x="479" y="1114"/>
      <point x="479" y="1063" type="qcurve"/>
      <point x="479" y="918"/>
      <point x="459" y="694" type="qcurve"/>
      <point x="430" y="367"/>
      <point x="428" y="328" type="qcurve"/>
      <point x="522" y="514"/>
      <point x="616" y="702" type="qcurve"/>
      <point x="774" y="1010"/>
      <point x="840" y="1081"/>
      <point x="881" y="1081" type="qcurve"/>
      <point x="911" y="1081"/>
      <point x="987" y="1071" type="qcurve"/>
      <point x="1075" y="1063"/>
      <point x="1085" y="1053" type="qcurve"/>
      <point x="1094" y="1018"/>
      <point x="1094" y="915" type="qcurve"/>
      <point x="1094" y="520"/>
      <point x="1081" y="375" type="qcurve"/>
      <point x="1202" y="551"/>
      <point x="1358" y="856" type="qcurve"/>
      <point x="1425" y="989"/>
      <point x="1511" y="1135" type="qcurve"/>
      <point x="1524" y="1141"/>
      <point x="1538" y="1141" type="qcurve"/>
      <point x="1606" y="1141"/>
      <point x="1671" y="1130" type="qcurve"/>
      <point x="1769" y="1112"/>
    </contour>
  </outline>
</glyph>
<glyph name="uniA4EC" format="2">
  <advance width="1055"/>
  <unicode hex="A4EC"/>
  <outline>
    <contour>
      <point x="1104" y="1092" type="qcurve"/>
      <point x="1104" y="1057"/>
      <point x="1083" y="1026" type="qcurve"/>
      <point x="557" y="211" type="line"/>
      <point x="518" y="141"/>
      <point x="426" y="12" type="qcurve"/>
      <point x="399" y="-18"/>
      <point x="354" y="-18" type="qcurve"/>
      <point x="297" y="-18"/>
      <point x="225" y="-6" type="qcurve"/>
      <point x="121" y="12"/>
      <point x="121" y="41" type="qcurve"/>
      <point x="121" y="63"/>
      <point x="162" y="123" type="qcurve"/>
      <point x="190" y="164"/>
      <point x="219" y="205" type="qcurve"/>
      <point x="254" y="262"/>
      <point x="326" y="379" type="qcurve"/>
      <point x="319" y="410"/>
      <point x="266" y="621" type="qcurve"/>
      <point x="248" y="707"/>
      <point x="207" y="883" type="qcurve"/>
      <point x="168" y="1047"/>
      <point x="168" y="1114" type="qcurve"/>
      <point x="168" y="1151"/>
      <point x="195" y="1151" type="qcurve"/>
      <point x="240" y="1151"/>
      <point x="332" y="1137" type="qcurve"/>
      <point x="440" y="1120"/>
      <point x="451" y="1102" type="qcurve"/>
      <point x="453" y="1100"/>
      <point x="485" y="899"/>
      <point x="485" y="815" type="qcurve"/>
      <point x="485" y="705"/>
      <point x="467" y="522" type="qcurve"/>
      <point x="541" y="668"/>
      <point x="616" y="813" type="qcurve"/>
      <point x="709" y="983"/>
      <point x="788" y="1092" type="qcurve"/>
      <point x="829" y="1145"/>
      <point x="870" y="1145" type="qcurve"/>
      <point x="1104" y="1145"/>
    </contour>
  </outline>
</glyph>
<glyph name="uniA4EE" format="2">
  <advance width="1130"/>
  <unicode hex="A4EE"/>
  <outline>
    <contour>
      <point x="938" y="651" type="qcurve"/>
      <point x="938" y="489"/>
      <point x="922" y="176" type="qcurve"/>
      <point x="922" y="158"/>
      <point x="915" y="92" type="qcurve"/>
      <point x="911" y="41"/>
      <point x="911" y="8" type="qcurve"/>
      <point x="911" y="-16"/>
      <point x="817" y="-16" type="qcurve"/>
      <point x="715" y="-16"/>
      <point x="709" y="-16" type="qcurve"/>
      <point x="639" y="-6"/>
      <point x="639" y="45" type="qcurve"/>
      <point x="639" y="82"/>
      <point x="651" y="131" type="qcurve"/>
      <point x="664" y="174"/>
      <point x="676" y="217" type="qcurve"/>
      <point x="696" y="301"/>
      <point x="709" y="424" type="qcurve"/>
      <point x="637" y="313"/>
      <point x="582" y="313" type="qcurve"/>
      <point x="571" y="313"/>
      <point x="543" y="324"/>
      <point x="541" y="324" type="qcurve"/>
      <point x="528" y="311"/>
      <point x="514" y="295" type="qcurve"/>
      <point x="489" y="276"/>
      <point x="410" y="276" type="qcurve"/>
      <point x="397" y="276"/>
      <point x="356" y="289" type="qcurve"/>
      <point x="332" y="254"/>
      <point x="248" y="109" type="qcurve"/>
      <point x="233" y="80"/>
      <point x="203" y="25" type="qcurve"/>
      <point x="176" y="-12"/>
      <point x="154" y="-12" type="qcurve"/>
      <point x="121" y="-12"/>
      <point x="59" y="2" type="qcurve"/>
      <point x="-8" y="14"/>
      <point x="-27" y="31" type="qcurve"/>
      <point x="-80" y="49"/>
      <point x="-80" y="63" type="qcurve"/>
      <point x="-80" y="78"/>
      <point x="-39" y="160" type="qcurve"/>
      <point x="8" y="252"/>
      <point x="14" y="268" type="qcurve"/>
      <point x="-43" y="274"/>
      <point x="-43" y="283" type="qcurve"/>
      <point x="-43" y="311"/>
      <point x="20" y="502"/>
      <point x="37" y="516" type="qcurve"/>
      <point x="49" y="524"/>
      <point x="174" y="524" type="qcurve"/>
      <point x="174" y="526"/>
      <point x="283" y="696" type="qcurve"/>
      <point x="352" y="809"/>
      <point x="424" y="924" type="qcurve"/>
      <point x="522" y="1077"/>
      <point x="582" y="1128" type="qcurve"/>
      <point x="606" y="1151"/>
      <point x="641" y="1151" type="qcurve"/>
      <point x="702" y="1151"/>
      <point x="782" y="1141" type="qcurve"/>
      <point x="887" y="1126"/>
      <point x="909" y="1102" type="qcurve"/>
      <point x="926" y="1083"/>
      <point x="934" y="897" type="qcurve"/>
      <point x="938" y="799"/>
    </contour>
    <contour>
      <point x="723" y="610" type="qcurve"/>
      <point x="723" y="655"/>
      <point x="711" y="840"/>
      <point x="711" y="885" type="qcurve"/>
      <point x="711" y="948"/>
      <point x="713" y="1034" type="qcurve"/>
      <point x="670" y="950"/>
      <point x="571" y="793" type="qcurve"/>
      <point x="506" y="707"/>
      <point x="440" y="621" type="qcurve"/>
      <point x="369" y="522"/>
      <point x="334" y="434" type="qcurve"/>
      <point x="717" y="518" type="line"/>
      <point x="723" y="563"/>
    </contour>
  </outline>
</glyph>
<glyph name="uniA4EF" format="2">
  <advance width="1116"/>
  <unicode hex="A4EF"/>
  <outline>
    <contour>
      <point x="1147" y="1079" type="qcurve"/>
      <point x="1147" y="1067"/>
      <point x="1106" y="983" type="qcurve"/>
      <point x="1057" y="887"/>
      <point x="1051" y="870" type="qcurve"/>
      <point x="1110" y="868"/>
      <point x="1110" y="860" type="qcurve"/>
      <point x="1110" y="831"/>
      <point x="1047" y="641"/>
      <point x="1018" y="621"/>
      <point x="893" y="621" type="qcurve"/>
      <point x="891" y="618"/>
      <point x="784" y="449" type="qcurve"/>
      <point x="715" y="334"/>
      <point x="643" y="219" type="qcurve"/>
      <point x="545" y="66"/>
      <point x="485" y="14" type="qcurve"/>
      <point x="461" y="-8"/>
      <point x="426" y="-8" type="qcurve"/>
      <point x="365" y="-8"/>
      <point x="285" y="2" type="qcurve"/>
      <point x="180" y="16"/>
      <point x="158" y="41" type="qcurve"/>
      <point x="141" y="59"/>
      <point x="133" y="248" type="qcurve"/>
      <point x="129" y="346"/>
      <point x="129" y="492" type="qcurve"/>
      <point x="129" y="653"/>
      <point x="145" y="967" type="qcurve"/>
      <point x="145" y="987"/>
      <point x="152" y="1051" type="qcurve"/>
      <point x="156" y="1104"/>
      <point x="156" y="1161"/>
      <point x="248" y="1161" type="qcurve"/>
      <point x="352" y="1161"/>
      <point x="358" y="1159" type="qcurve"/>
      <point x="428" y="1149"/>
      <point x="428" y="1098" type="qcurve"/>
      <point x="428" y="1079"/>
      <point x="399" y="922" type="qcurve"/>
      <point x="387" y="844"/>
      <point x="375" y="731" type="qcurve"/>
      <point x="412" y="791"/>
      <point x="426" y="803" type="qcurve"/>
      <point x="453" y="827"/>
      <point x="500" y="827" type="qcurve"/>
      <point x="516" y="827"/>
      <point x="598" y="866"/>
      <point x="643" y="866" type="qcurve"/>
      <point x="670" y="866"/>
      <point x="711" y="854" type="qcurve"/>
      <point x="735" y="891"/>
      <point x="819" y="1036" type="qcurve"/>
      <point x="831" y="1065"/>
      <point x="864" y="1120" type="qcurve"/>
      <point x="891" y="1155"/>
      <point x="913" y="1155" type="qcurve"/>
      <point x="946" y="1155"/>
      <point x="1075" y="1128"/>
      <point x="1094" y="1114" type="qcurve"/>
      <point x="1147" y="1096"/>
    </contour>
    <contour>
      <point x="696" y="705" type="qcurve"/>
      <point x="387" y="649" type="line"/>
      <point x="383" y="625"/>
      <point x="340" y="508"/>
      <point x="340" y="477" type="qcurve"/>
      <point x="340" y="483"/>
      <point x="356" y="387" type="qcurve"/>
      <point x="362" y="348"/>
      <point x="358" y="145" type="qcurve"/>
      <point x="465" y="340"/>
      <point x="561" y="471" type="qcurve"/>
      <point x="651" y="594"/>
    </contour>
  </outline>
</glyph>
<glyph name="uniA4F2" format="2">
  <advance width="829"/>
  <unicode hex="A4F2"/>
  <outline>
    <contour>
      <point x="786" y="1090" type="qcurve"/>
      <point x="786" y="1069"/>
      <point x="713" y="874" type="qcurve"/>
      <point x="680" y="793"/>
      <point x="618" y="629" type="qcurve"/>
      <point x="524" y="336"/>
      <point x="408" y="16" type="qcurve"/>
      <point x="389" y="-8"/>
      <point x="350" y="-8" type="qcurve"/>
      <point x="61" y="-8"/>
      <point x="61" y="74" type="qcurve"/>
      <point x="61" y="117"/>
      <point x="424" y="1083"/>
      <point x="455" y="1122" type="qcurve"/>
      <point x="477" y="1147"/>
      <point x="557" y="1147" type="qcurve"/>
      <point x="786" y="1147"/>
    </contour>
  </outline>
</glyph>
<glyph name="uniA4F3" format="2">
  <advance width="1245"/>
  <unicode hex="A4F3"/>
  <outline>
    <contour>
      <point x="1165" y="854" type="qcurve"/>
      <point x="1165" y="377"/>
      <point x="848" y="119" type="qcurve"/>
      <point x="670" y="-27"/>
      <point x="492" y="-27" type="qcurve"/>
      <point x="426" y="-27"/>
      <point x="336" y="-12" type="qcurve"/>
      <point x="209" y="6"/>
      <point x="125" y="133" type="qcurve"/>
      <point x="49" y="250"/>
      <point x="49" y="385" type="qcurve"/>
      <point x="49" y="610"/>
      <point x="168" y="811" type="qcurve"/>
      <point x="293" y="1024"/>
      <point x="492" y="1108" type="qcurve"/>
      <point x="635" y="1167"/>
      <point x="729" y="1167" type="qcurve"/>
      <point x="762" y="1167"/>
      <point x="762" y="1155" type="qcurve"/>
      <point x="762" y="1151"/>
      <point x="842" y="1090"/>
      <point x="834" y="1028" type="qcurve"/>
      <point x="887" y="1065"/>
      <point x="940" y="1102" type="qcurve"/>
      <point x="1018" y="1153"/>
      <point x="1044" y="1153" type="qcurve"/>
      <point x="1165" y="1153"/>
    </contour>
    <contour>
      <point x="850" y="885" type="qcurve"/>
      <point x="850" y="934"/>
      <point x="803" y="1022" type="qcurve"/>
      <point x="770" y="922"/>
      <point x="702" y="922" type="qcurve"/>
      <point x="633" y="887" type="line"/>
      <point x="512" y="825"/>
      <point x="434" y="676" type="qcurve"/>
      <point x="358" y="537"/>
      <point x="358" y="393" type="qcurve"/>
      <point x="358" y="319"/>
      <point x="440" y="231"/>
      <point x="514" y="231" type="qcurve"/>
      <point x="586" y="231"/>
      <point x="676" y="332" type="qcurve"/>
      <point x="756" y="422"/>
      <point x="782" y="502" type="qcurve"/>
      <point x="840" y="670"/>
      <point x="840" y="811" type="qcurve"/>
      <point x="840" y="823"/>
      <point x="850" y="872"/>
    </contour>
  </outline>
</glyph>
<glyph name="uniA4F4" format="2">
  <advance width="1221"/>
  <unicode hex="A4F4"/>
  <outline>
    <contour>
      <point x="1227" y="1081" type="qcurve"/>
      <point x="1227" y="1028"/>
      <point x="1174" y="874" type="qcurve"/>
      <point x="1135" y="768"/>
      <point x="1096" y="662" type="qcurve"/>
      <point x="965" y="264"/>
      <point x="825" y="86" type="qcurve"/>
      <point x="743" y="-20"/>
      <point x="530" y="-20" type="qcurve"/>
      <point x="342" y="-20"/>
      <point x="213" y="49" type="qcurve"/>
      <point x="51" y="135"/>
      <point x="51" y="305" type="qcurve"/>
      <point x="51" y="375"/>
      <point x="78" y="467" type="qcurve"/>
      <point x="102" y="547"/>
      <point x="127" y="625" type="qcurve"/>
      <point x="162" y="743"/>
      <point x="236" y="983" type="qcurve"/>
      <point x="250" y="1032"/>
      <point x="283" y="1128" type="qcurve"/>
      <point x="293" y="1151"/>
      <point x="369" y="1151" type="qcurve"/>
      <point x="592" y="1151"/>
      <point x="592" y="1112" type="qcurve"/>
      <point x="592" y="1069"/>
      <point x="561" y="987" type="qcurve"/>
      <point x="537" y="924"/>
      <point x="514" y="862" type="qcurve"/>
      <point x="412" y="569"/>
      <point x="367" y="344" type="qcurve"/>
      <point x="381" y="283"/>
      <point x="434" y="238"/>
      <point x="498" y="238" type="qcurve"/>
      <point x="524" y="238"/>
      <point x="551" y="242" type="qcurve"/>
      <point x="641" y="254"/>
      <point x="723" y="459" type="qcurve"/>
      <point x="770" y="604"/>
      <point x="817" y="752" type="qcurve"/>
      <point x="848" y="838"/>
      <point x="909" y="1014" type="qcurve"/>
      <point x="918" y="1044"/>
      <point x="944" y="1102" type="qcurve"/>
      <point x="965" y="1133"/>
      <point x="1032" y="1133" type="qcurve"/>
      <point x="1227" y="1133"/>
    </contour>
  </outline>
</glyph>
<glyph name="uniA4F5" format="2">
  <advance width="1264"/>
  <unicode hex="A4F5"/>
  <outline>
    <contour>
      <point x="1135" y="819" type="qcurve"/>
      <point x="1135" y="750"/>
      <point x="1108" y="657" type="qcurve"/>
      <point x="1083" y="578"/>
      <point x="1059" y="500" type="qcurve"/>
      <point x="1024" y="381"/>
      <point x="950" y="141" type="qcurve"/>
      <point x="936" y="92"/>
      <point x="903" y="-4" type="qcurve"/>
      <point x="893" y="-27"/>
      <point x="817" y="-27" type="qcurve"/>
      <point x="594" y="-27"/>
      <point x="594" y="12" type="qcurve"/>
      <point x="594" y="55"/>
      <point x="625" y="137" type="qcurve"/>
      <point x="649" y="201"/>
      <point x="672" y="262" type="qcurve"/>
      <point x="774" y="555"/>
      <point x="819" y="780" type="qcurve"/>
      <point x="805" y="842"/>
      <point x="752" y="887"/>
      <point x="688" y="887" type="qcurve"/>
      <point x="592" y="887"/>
      <point x="543" y="825" type="qcurve"/>
      <point x="489" y="758"/>
      <point x="440" y="608" type="qcurve"/>
      <point x="406" y="492"/>
      <point x="369" y="375" type="qcurve"/>
      <point x="338" y="287"/>
      <point x="276" y="111" type="qcurve"/>
      <point x="268" y="80"/>
      <point x="242" y="23" type="qcurve"/>
      <point x="221" y="-8"/>
      <point x="152" y="-8" type="qcurve"/>
      <point x="-41" y="-8"/>
      <point x="-41" y="43" type="qcurve"/>
      <point x="-41" y="96"/>
      <point x="12" y="250" type="qcurve"/>
      <point x="51" y="356"/>
      <point x="90" y="465" type="qcurve"/>
      <point x="221" y="860"/>
      <point x="360" y="1038" type="qcurve"/>
      <point x="442" y="1145"/>
      <point x="655" y="1145" type="qcurve"/>
      <point x="844" y="1145"/>
      <point x="973" y="1077" type="qcurve"/>
      <point x="1135" y="991"/>
    </contour>
  </outline>
</glyph>
<glyph name="uniA4F7" format="2">
  <advance width="1229"/>
  <unicode hex="A4F7"/>
  <outline>
    <contour>
      <point x="1280" y="913" type="qcurve"/>
      <point x="1280" y="868"/>
      <point x="1255" y="801" type="qcurve"/>
      <point x="1219" y="696"/>
      <point x="1217" y="692" type="qcurve"/>
      <point x="1141" y="758"/>
      <point x="1083" y="788" type="qcurve"/>
      <point x="991" y="500"/>
      <point x="958" y="408" type="qcurve"/>
      <point x="854" y="100"/>
      <point x="827" y="76" type="qcurve"/>
      <point x="795" y="47"/>
      <point x="690" y="16" type="qcurve"/>
      <point x="594" y="-10"/>
      <point x="541" y="-10" type="qcurve"/>
      <point x="365" y="-10"/>
      <point x="207" y="215" type="qcurve"/>
      <point x="61" y="424"/>
      <point x="61" y="608" type="qcurve"/>
      <point x="61" y="881"/>
      <point x="240" y="1044" type="qcurve"/>
      <point x="414" y="1202"/>
      <point x="688" y="1202" type="qcurve"/>
      <point x="905" y="1202"/>
      <point x="1204" y="997" type="qcurve"/>
      <point x="1280" y="946"/>
    </contour>
    <contour>
      <point x="1063" y="803" type="qcurve"/>
      <point x="979" y="852"/>
      <point x="893" y="899" type="qcurve"/>
      <point x="793" y="952"/>
      <point x="709" y="952" type="qcurve"/>
      <point x="565" y="952"/>
      <point x="360" y="741"/>
      <point x="360" y="596" type="qcurve"/>
      <point x="360" y="461"/>
      <point x="459" y="307"/>
      <point x="584" y="254" type="qcurve"/>
      <point x="629" y="375"/>
      <point x="672" y="481" type="qcurve"/>
      <point x="692" y="549"/>
      <point x="733" y="682" type="qcurve"/>
      <point x="745" y="719"/>
      <point x="758" y="758" type="qcurve"/>
      <point x="780" y="811"/>
      <point x="805" y="817" type="qcurve"/>
      <point x="811" y="819"/>
      <point x="838" y="819" type="qcurve"/>
      <point x="944" y="819"/>
    </contour>
  </outline>
</glyph>
<glyph name="uniA4F9" format="2">
  <advance width="461"/>
  <unicode hex="A4F9"/>
  <outline>
    <contour>
      <point x="287" y="252" type="qcurve"/>
      <point x="287" y="231"/>
      <point x="-12" y="-150"/>
      <point x="-47" y="-176" type="qcurve"/>
      <point x="-72" y="-195"/>
      <point x="-102" y="-195" type="qcurve"/>
      <point x="-147" y="-195"/>
      <point x="-147" y="-141" type="qcurve"/>
      <point x="-147" y="-47"/>
      <point x="-29" y="178" type="qcurve"/>
      <point x="2" y="238"/>
      <point x="57" y="272"/>
      <point x="121" y="272" type="qcurve"/>
      <point x="147" y="272" type="line"/>
      <point x="287" y="272"/>
    </contour>
  </outline>
</glyph>
<glyph name="uniA4FA" format="2">
  <advance width="836"/>
  <unicode hex="A4FA"/>
  <outline>
    <contour>
      <point x="610" y="182" type="qcurve"/>
      <point x="610" y="-6"/>
      <point x="430" y="-6" type="qcurve"/>
      <point x="381" y="-6"/>
      <point x="367" y="16" type="qcurve"/>
      <point x="356" y="33"/>
      <point x="356" y="88" type="qcurve"/>
      <point x="356" y="158"/>
      <point x="451" y="283"/>
      <point x="518" y="283" type="qcurve"/>
      <point x="610" y="283"/>
    </contour>
    <contour>
      <point x="188" y="182" type="qcurve"/>
      <point x="188" y="-6"/>
      <point x="8" y="-6" type="qcurve"/>
      <point x="-41" y="-6"/>
      <point x="-55" y="16" type="qcurve"/>
      <point x="-66" y="33"/>
      <point x="-66" y="88" type="qcurve"/>
      <point x="-66" y="158"/>
      <point x="29" y="283"/>
      <point x="96" y="283" type="qcurve"/>
      <point x="188" y="283"/>
    </contour>
  </outline>
</glyph>
<glyph name="uniA4FD" format="2">
  <advance width="559"/>
  <unicode hex="A4FD"/>
  <outline>
    <contour>
      <point x="381" y="612" type="qcurve"/>
      <point x="381" y="424"/>
      <point x="201" y="424" type="qcurve"/>
      <point x="152" y="424"/>
      <point x="137" y="446" type="qcurve"/>
      <point x="127" y="463"/>
      <point x="127" y="518" type="qcurve"/>
      <point x="127" y="588"/>
      <point x="221" y="713"/>
      <point x="289" y="713" type="qcurve"/>
      <point x="381" y="713"/>
    </contour>
    <contour>
      <point x="217" y="182" type="qcurve"/>
      <point x="217" y="-6"/>
      <point x="37" y="-6" type="qcurve"/>
      <point x="-12" y="-6"/>
      <point x="-27" y="16" type="qcurve"/>
      <point x="-37" y="33"/>
      <point x="-37" y="88" type="qcurve"/>
      <point x="-37" y="158"/>
      <point x="57" y="283"/>
      <point x="125" y="283" type="qcurve"/>
      <point x="217" y="283"/>
    </contour>
  </outline>
</glyph>
<glyph name="uniA4FF" format="2">
  <advance width="1329"/>
  <unicode hex="A4FF"/>
  <outline>
    <contour>
      <point x="1141" y="639" type="qcurve"/>
      <point x="1141" y="553"/>
      <point x="1030" y="553" type="qcurve"/>
      <point x="338" y="553" type="line"/>
      <point x="227" y="553"/>
      <point x="227" y="639" type="qcurve"/>
      <point x="227" y="725"/>
      <point x="338" y="725" type="qcurve"/>
      <point x="1030" y="725" type="line"/>
      <point x="1141" y="725"/>
    </contour>
    <contour>
      <point x="1018" y="289" type="qcurve"/>
      <point x="1018" y="203"/>
      <point x="907" y="203" type="qcurve"/>
      <point x="215" y="203" type="line"/>
      <point x="104" y="203"/>
      <point x="104" y="289" type="qcurve"/>
      <point x="104" y="373"/>
      <point x="215" y="373" type="qcurve"/>
      <point x="907" y="373" type="line"/>
      <point x="1018" y="373"/>
    </contour>
  </outline>
</glyph>
